<svg id="Layer_1" data-name="Layer 1" xmlns="http://www.w3.org/2000/svg" xmlns:xlink="http://www.w3.org/1999/xlink" viewBox="0 0 827.71 580.41"><defs><style>.cls-1{fill:#fff;}.cls-2{fill:url(#New_Gradient_Swatch_2);}.cls-3{fill:url(#New_Gradient_Swatch_2-2);}.cls-4{fill:url(#New_Gradient_Swatch_2-3);}.cls-5{fill:url(#New_Gradient_Swatch_2-4);}.cls-6{fill:url(#New_Gradient_Swatch_2-6);}.cls-7{fill:url(#New_Gradient_Swatch_2-7);}.cls-8{fill:url(#New_Gradient_Swatch_2-11);}.cls-12,.cls-13,.cls-9{fill:#eebc65;}.cls-10{fill:#c9a400;}.cls-11{fill:#fefefd;}.cls-12{font-size:120px;letter-spacing:0.07em;}.cls-12,.cls-13{font-family:Avenir-Light, Avenir;}.cls-13{font-size:32px;}.cls-14{fill:none;}</style><linearGradient id="New_Gradient_Swatch_2" x1="178.83" y1="549.66" x2="182.12" y2="549.66" gradientUnits="userSpaceOnUse"><stop offset="0" stop-color="#f9c561"/><stop offset="0.56" stop-color="#e8b85a"/><stop offset="1" stop-color="#94753a"/></linearGradient><linearGradient id="New_Gradient_Swatch_2-2" x1="178.62" y1="549.53" x2="181.9" y2="549.76" xlink:href="#New_Gradient_Swatch_2"/><linearGradient id="New_Gradient_Swatch_2-3" x1="166.51" y1="568.45" x2="168.84" y2="568.45" xlink:href="#New_Gradient_Swatch_2"/><linearGradient id="New_Gradient_Swatch_2-4" x1="178.83" y1="549.66" x2="182.04" y2="549.66" xlink:href="#New_Gradient_Swatch_2"/><linearGradient id="New_Gradient_Swatch_2-6" x1="179.04" y1="549.72" x2="182.12" y2="549.72" xlink:href="#New_Gradient_Swatch_2"/><linearGradient id="New_Gradient_Swatch_2-7" x1="188.56" y1="572.65" x2="196.62" y2="572.65" xlink:href="#New_Gradient_Swatch_2"/><linearGradient id="New_Gradient_Swatch_2-11" x1="85.34" y1="347.69" x2="267.2" y2="386.35" xlink:href="#New_Gradient_Swatch_2"/></defs><title>award_logo</title><ellipse class="cls-1" cx="97.74" cy="523.36" rx="97.74" ry="28.04"/><ellipse class="cls-1" cx="97.74" cy="550.71" rx="97.74" ry="29.69"/><rect class="cls-1" y="522.01" width="195.48" height="29.65"/><path class="cls-2" d="M182.12,546.6c0,.12-.06.24-.08.36-.47,2.1-1,4.07-1.55,5.88-.52-1.67-1-3.47-1.45-5.39l-.21-1a11.49,11.49,0,0,1,2.41.27C181.53,546.69,181.83,546.64,182.12,546.6Z" transform="translate(-83.84 -70.7)"/><path class="cls-3" d="M182.12,546.6c0,.12-.06.24-.08.36-.47,2.1-1,4.07-1.55,5.88-.52-1.67-1-3.47-1.45-5.39l-.21-1a11.49,11.49,0,0,1,2.41.27C181.53,546.69,181.83,546.64,182.12,546.6Z" transform="translate(-83.84 -70.7)"/><path class="cls-4" d="M167.19,566.95a11.9,11.9,0,0,0,1.65,3.16l-.6.06a10,10,0,0,1-1.73-3.44A6,6,0,0,0,167.19,566.95Z" transform="translate(-83.84 -70.7)"/><path class="cls-5" d="M182,547c-.47,2.1-1,4.07-1.55,5.88-.52-1.67-1-3.47-1.45-5.39l-.21-1a11.49,11.49,0,0,1,2.41.27A7.2,7.2,0,0,1,182,547Z" transform="translate(-83.84 -70.7)"/><path class="cls-4" d="M167.19,566.95a11.9,11.9,0,0,0,1.65,3.16l-.6.06a10,10,0,0,1-1.73-3.44A6,6,0,0,0,167.19,566.95Z" transform="translate(-83.84 -70.7)"/><path class="cls-6" d="M181.24,546.76c.29-.07.59-.12.88-.16,0,.12-.06.24-.08.36-.47,2.1-1,4.07-1.55,5.88-.52-1.67-1-3.47-1.45-5.39A10.8,10.8,0,0,1,181.24,546.76Z" transform="translate(-83.84 -70.7)"/><path class="cls-7" d="M196.62,570.6a12,12,0,0,1-8.06,4.4l3.78-2.93a10.72,10.72,0,0,0,1.79-1.77Q195.39,570.43,196.62,570.6Z" transform="translate(-83.84 -70.7)"/><path class="cls-2" d="M181.24,546.76c.29-.07.59-.12.88-.16,0,.12-.06.24-.08.36-.47,2.1-1,4.07-1.55,5.88-.52-1.67-1-3.47-1.45-5.39l-.21-1A11.49,11.49,0,0,1,181.24,546.76Z" transform="translate(-83.84 -70.7)"/><path class="cls-7" d="M196.62,570.6a12,12,0,0,1-8.06,4.4l3.78-2.93a10.72,10.72,0,0,0,1.79-1.77Q195.39,570.43,196.62,570.6Z" transform="translate(-83.84 -70.7)"/><path class="cls-7" d="M196.62,570.6a12,12,0,0,1-8.06,4.4l3.78-2.93a10.72,10.72,0,0,0,1.79-1.77Q195.39,570.43,196.62,570.6Z" transform="translate(-83.84 -70.7)"/><path class="cls-8" d="M254.17,254.73l-15.06,79.65c-.77,4.08-5.67,6.93-10.89,6.33l-8.16-1v22.13c4.31,11.72,6.26,28.22,4.77,46.34-1.29,15.76-5,30-10,40.8,3.14,12.8,4.28,31.1,2.65,51.25-2,24.91-7.75,46.42-14.67,58l13.49,10.48a10,10,0,0,1,3.92,9c3,2,4.75,4.25,4.75,6.64,0,8.15-19.92,14.76-44.5,14.76S136,592.5,136,584.35c0-2.74,2.25-5.3,6.16-7.49a10.09,10.09,0,0,1,4-8.15L158.62,559c-7.14-11.31-13.1-33.25-15.16-58.74-1.53-18.92-.62-36.21,2.09-48.84-6.45-10.82-11.29-27-12.79-45.18-1.71-20.87,1.35-39.53,7.43-50.83V339.85l-7.37.86c-5.21.6-10.11-2.25-10.89-6.33l-15-79.62a10.73,10.73,0,0,1,4.84-13.25L161,212.77v-8.53a11.73,11.73,0,0,1,.85-4.4c-6.39-8.67-10.43-21.44-10.43-35.69,0-11.68,2.78-18.08,7.35-21.6,5.1-4.51,13.36-7.44,22.67-7.44A37.24,37.24,0,0,1,201,140.29h0c6.74,2.71,11,9,11,23.85,0,16-5.08,30.1-12.87,38.67a11,11,0,0,1,.09,1.42v8.06l50,29.21A10.73,10.73,0,0,1,254.17,254.73Z" transform="translate(-83.84 -70.7)"/><path class="cls-9" d="M211.16,212c-3.85-.65-7.7-1.29-11.55-2L169,204.73l-29.42-5.1q-7-1.21-14-2.39c-.85-.14-1.32-.24-1.15-1.43,1.35-9.9,2.58-19.82,3.86-29.73,1.07-8.3,2.18-16.59,3.25-24.89s2.12-16.53,3.19-24.79c.17-1.3.43-2.59.56-3.9a3.48,3.48,0,0,1,2.76-3.21c4.56-1.4,9.09-2.9,13.67-4.23a2.17,2.17,0,0,0,1.72-2,52.31,52.31,0,0,1,12.43-25c3.13-3.43,6.82-6.08,11.49-7,4.47-.93,8.46-.1,11.66,3.37a1.16,1.16,0,0,0,1,.39c5.21-.19,9,2.32,11.82,6.45a24.81,24.81,0,0,1,3.07,6.33c.23.68.47.88,1.17.61,1-.37,2-.61,3-.92a4.44,4.44,0,0,1,2.14-.19q0,2.65,0,5.3Q211.16,152.18,211.16,212Zm-44-24.37,1.82-.12c7.86-.62,13.55-4.41,16.81-11.64A24.77,24.77,0,0,0,187.67,164a18.78,18.78,0,0,0-4-10.8,33.58,33.58,0,0,0-8.34-7.1,46,46,0,0,1-6.36-4.47,5.44,5.44,0,0,1-2.07-4.34c.12-3,2.13-5.3,5.56-6.11a22.09,22.09,0,0,1,12.64,1.06c.77.27,1,.2,1.26-.64,1.13-4.42,2.33-8.82,3.51-13.22.65-2.42.66-2.42-1.76-3a32.54,32.54,0,0,0-12.88-.19,28.17,28.17,0,0,0-14.49,6.48c-6.2,5.48-8.84,12.49-8.52,20.65a17.1,17.1,0,0,0,6.54,13.14c1.88,1.52,3.88,2.9,5.82,4.35A12.09,12.09,0,0,1,169,165c1.54,4-.58,7.58-4.82,8.08a9.26,9.26,0,0,1-3-.26,28.33,28.33,0,0,1-10.1-4.68c-.63-.43-.79-.37-1,.38-.77,3.44-1.53,6.88-2.44,10.28a2.11,2.11,0,0,0,.92,2.53A29.38,29.38,0,0,0,167.18,187.61Zm17-111.28a7.29,7.29,0,0,0-4.58-1,14.6,14.6,0,0,0-8.51,4.18c-6.65,6.22-10.46,14.07-12.81,22.72-.26,1,.33.65.79.51,3.4-1.05,6.79-2.12,10.2-3.14a1.1,1.1,0,0,0,.86-1,38.09,38.09,0,0,1,1-3.81C173.53,87.38,177,80.68,184.14,76.33Zm5.36,15.8c-.07-1.22-.1-2.19-.19-3.15a30.15,30.15,0,0,0-1.68-8c-.3-.81-.66-.88-1.36-.48A15.2,15.2,0,0,0,183,82.93c-3.93,3.92-6.18,8.78-7.8,14-.21.69,0,.85.68.62C180,96.25,184,95,188.1,93.78,189.13,93.47,189.89,93.14,189.49,92.13Zm2.57-12.54c.22.7.4,1.28.58,1.87a43.06,43.06,0,0,1,1.42,9.71c0,.39-.07.78.59.56q2.7-.89,5.44-1.69c.51-.15.58-.39.43-.83a17,17,0,0,0-4.9-7.92A7.13,7.13,0,0,0,192.07,79.59Z" transform="translate(-83.84 -70.7)"/><path class="cls-10" d="M211.16,212q0-59.79,0-119.59,0-2.65,0-5.3a1.75,1.75,0,0,1,1.55.67c2.58,2.51,5.22,5,7.71,7.56a4.09,4.09,0,0,0,3.19,1.29c2.66,0,5.33,0,8,.09,1.47,0,1.79.33,2,1.78q1.87,12.59,3.74,25.19c1.08,7.27,2.19,14.53,3.27,21.8.93,6.31,1.82,12.64,2.76,19,1.08,7.27,2.19,14.54,3.27,21.8.77,5.19,1.53,10.37,2.3,15.56.09.61,0,1-.74,1.15q-18.16,4.47-36.31,9A3.48,3.48,0,0,1,211.16,212Z" transform="translate(-83.84 -70.7)"/><path class="cls-11" d="M167.18,187.61a29.38,29.38,0,0,1-18.54-6.29,2.11,2.11,0,0,1-.92-2.53c.91-3.4,1.67-6.84,2.44-10.28.17-.75.33-.81,1-.38a28.33,28.33,0,0,0,10.1,4.68,9.26,9.26,0,0,0,3,.26c4.24-.49,6.36-4,4.82-8.08a12.09,12.09,0,0,0-4.47-5.2c-1.94-1.45-3.94-2.83-5.82-4.35a17.1,17.1,0,0,1-6.54-13.14c-.32-8.16,2.32-15.17,8.52-20.65a28.17,28.17,0,0,1,14.49-6.48,32.54,32.54,0,0,1,12.88.19c2.42.57,2.41.58,1.76,3-1.18,4.4-2.38,8.8-3.51,13.22-.22.85-.49.92-1.26.64a22.09,22.09,0,0,0-12.64-1.06c-3.43.8-5.44,3.1-5.56,6.11a5.44,5.44,0,0,0,2.07,4.34,46,46,0,0,0,6.36,4.47,33.58,33.58,0,0,1,8.34,7.1,18.78,18.78,0,0,1,4,10.8,24.77,24.77,0,0,1-1.87,11.86c-3.27,7.23-9,11-16.81,11.64Z" transform="translate(-83.84 -70.7)"/><text class="cls-12" transform="translate(195.43 326.44)">SHOPPIES</text><text class="cls-13" transform="translate(481.94 217.39)">THE</text><line class="cls-14" x1="565.16" y1="205.8" x2="757.16" y2="205.8"/><line class="cls-14" x1="267.16" y1="205.8" x2="459.16" y2="205.8"/></svg>