<svg id="Layer_1" data-name="Layer 1" xmlns="http://www.w3.org/2000/svg" xmlns:xlink="http://www.w3.org/1999/xlink" viewBox="0 0 921.64 516"><defs><style>.cls-1{fill:url(#linear-gradient);}.cls-2{fill:url(#linear-gradient-2);}.cls-3{fill:url(#linear-gradient-3);}.cls-4{fill:url(#linear-gradient-5);}.cls-5{fill:url(#linear-gradient-6);}.cls-6{fill:url(#linear-gradient-8);}.cls-7{fill:url(#linear-gradient-9);}.cls-8{fill:url(#linear-gradient-16);}.cls-9{fill:#f9c561;}.cls-10{fill:#cc9a52;}.cls-11{fill:#fefefd;}.cls-12{fill:#eebc65;}</style><linearGradient id="linear-gradient" x1="82.18" y1="542.91" x2="242.32" y2="635.37" gradientUnits="userSpaceOnUse"><stop offset="0" stop-color="#fff"/><stop offset="0.72" stop-color="#f4f6f5"/><stop offset="1" stop-color="#bfbfbf"/></linearGradient><linearGradient id="linear-gradient-2" x1="23.43" y1="416.05" x2="172.06" y2="501.86" xlink:href="#linear-gradient"/><linearGradient id="linear-gradient-3" x1="159.99" y1="528.08" x2="163.16" y2="528.75" gradientUnits="userSpaceOnUse"><stop offset="0" stop-color="#ffc963"/><stop offset="0.36" stop-color="#e1b258"/><stop offset="1" stop-color="#94753a"/></linearGradient><linearGradient id="linear-gradient-5" x1="147.91" y1="547.2" x2="150.82" y2="547.82" xlink:href="#linear-gradient-3"/><linearGradient id="linear-gradient-6" x1="159.96" y1="528.24" x2="163.12" y2="528.92" xlink:href="#linear-gradient-3"/><linearGradient id="linear-gradient-8" x1="160.39" y1="528.16" x2="163.16" y2="528.75" xlink:href="#linear-gradient-3"/><linearGradient id="linear-gradient-9" x1="170.89" y1="551.08" x2="177.71" y2="552.52" xlink:href="#linear-gradient-3"/><linearGradient id="linear-gradient-16" x1="73.61" y1="328.09" x2="248.91" y2="365.35" xlink:href="#linear-gradient-3"/></defs><title>award_logo</title><path class="cls-1" d="M261,571.71v28.7c0,.32,0,.63-.05,1-1.65,16-44.74,28.75-97.67,28.75s-96-12.79-97.67-28.75c0-.32-.05-.63-.05-1v-28.7Z" transform="translate(-65.55 -114.11)"/><ellipse class="cls-2" cx="97.74" cy="458.95" rx="97.74" ry="28.04"/><path class="cls-3" d="M163.83,525.6c0,.12-.06.24-.08.36-.47,2.1-1,4.07-1.55,5.88-.52-1.67-1-3.47-1.45-5.39l-.21-1a11.48,11.48,0,0,1,2.41.27C163.24,525.69,163.54,525.64,163.83,525.6Z" transform="translate(-65.55 -114.11)"/><path class="cls-3" d="M163.83,525.6c0,.12-.06.24-.08.36-.47,2.1-1,4.07-1.55,5.88-.52-1.67-1-3.47-1.45-5.39l-.21-1a11.48,11.48,0,0,1,2.41.27C163.24,525.69,163.54,525.64,163.83,525.6Z" transform="translate(-65.55 -114.11)"/><path class="cls-4" d="M150.55,549.11l-.6.06a10.05,10.05,0,0,1-1.73-3.44,6,6,0,0,0,.68.22A11.89,11.89,0,0,0,150.55,549.11Z" transform="translate(-65.55 -114.11)"/><path class="cls-5" d="M163.75,526c-.47,2.1-1,4.07-1.55,5.88-.52-1.67-1-3.47-1.45-5.39l-.21-1a11.48,11.48,0,0,1,2.41.27A7.2,7.2,0,0,1,163.75,526Z" transform="translate(-65.55 -114.11)"/><path class="cls-4" d="M150.55,549.11l-.6.06a10.05,10.05,0,0,1-1.73-3.44,6,6,0,0,0,.68.22A11.89,11.89,0,0,0,150.55,549.11Z" transform="translate(-65.55 -114.11)"/><path class="cls-6" d="M163.83,525.6c0,.12-.06.24-.08.36-.47,2.1-1,4.07-1.55,5.88-.52-1.67-1-3.47-1.45-5.39a10.79,10.79,0,0,1,2.2-.69C163.24,525.69,163.54,525.64,163.83,525.6Z" transform="translate(-65.55 -114.11)"/><path class="cls-7" d="M178.33,549.6a12,12,0,0,1-8.06,4.4l3.78-2.93a10.72,10.72,0,0,0,1.79-1.77Q177.1,549.44,178.33,549.6Z" transform="translate(-65.55 -114.11)"/><path class="cls-3" d="M163.83,525.6c0,.12-.06.24-.08.36-.47,2.1-1,4.07-1.55,5.88-.52-1.67-1-3.47-1.45-5.39l-.21-1a11.48,11.48,0,0,1,2.41.27C163.24,525.69,163.54,525.64,163.83,525.6Z" transform="translate(-65.55 -114.11)"/><path class="cls-7" d="M178.33,549.6a12,12,0,0,1-8.06,4.4l3.78-2.93a10.72,10.72,0,0,0,1.79-1.77Q177.1,549.44,178.33,549.6Z" transform="translate(-65.55 -114.11)"/><path class="cls-7" d="M178.33,549.6a12,12,0,0,1-8.06,4.4l3.78-2.93a10.72,10.72,0,0,0,1.79-1.77Q177.1,549.44,178.33,549.6Z" transform="translate(-65.55 -114.11)"/><path class="cls-4" d="M148.9,546a11.89,11.89,0,0,0,1.65,3.16l-.6.06a10.05,10.05,0,0,1-1.73-3.44A6,6,0,0,0,148.9,546Z" transform="translate(-65.55 -114.11)"/><path class="cls-3" d="M163,525.76c.29-.07.59-.12.88-.16,0,.12-.06.24-.08.36-.47,2.1-1,4.07-1.55,5.88-.52-1.67-1-3.47-1.45-5.39l-.21-1A11.48,11.48,0,0,1,163,525.76Z" transform="translate(-65.55 -114.11)"/><path class="cls-7" d="M178.33,549.6a12,12,0,0,1-8.06,4.4l3.78-2.93a10.72,10.72,0,0,0,1.79-1.77Q177.1,549.44,178.33,549.6Z" transform="translate(-65.55 -114.11)"/><path class="cls-8" d="M228.19,282.2c-1.12,20.12-5.86,37.16-11.65,44.23l-12.08,23.78a125.22,125.22,0,0,1,2.08,37c-1.29,15.76-5,30-10,40.8,3.14,12.8,4.28,31.1,2.65,51.25-2,24.91-7.75,46.42-14.67,58L198,547.71a10,10,0,0,1,3.92,9c3,2,4.75,4.25,4.75,6.64,0,8.15-19.92,14.76-44.5,14.76s-44.5-6.61-44.5-14.76c0-2.74,2.25-5.3,6.16-7.49a10.09,10.09,0,0,1,4-8.15L140.33,538c-7.14-11.31-13.1-33.25-15.16-58.74-1.53-18.92-.62-36.21,2.09-48.84-6.45-10.82-11.29-27-12.79-45.18-1.19-14.57-.06-28.07,2.8-38.73l-11.21-19.41c-6.5-5.69-12-24-13.25-45.92a130.61,130.61,0,0,1,1.61-30.71c-2.14-4.34-1.06-20.2,1.58-25.49,4-8,4-8,12.56-13.1l34.1-20.13v-8.53a11.73,11.73,0,0,1,.85-4.4c-6.39-8.67-10.43-21.44-10.43-35.69,0-11.68,2.78-18.08,7.35-21.6,5.1-4.51,13.36-7.44,22.67-7.44a37.24,37.24,0,0,1,19.66,5.18h0c6.74,2.71,11,9,11,23.85,0,16-5.08,30.1-12.87,38.67a11,11,0,0,1,.09,1.42v8.06l11,6.7s9,6,9,6c5,2,11.84,6.88,12,7,5.28,3.76,11,5,13,12,1.62,5.69,2.72,24.15.58,28.49A130.08,130.08,0,0,1,228.19,282.2Z" transform="translate(-65.55 -114.11)"/><path class="cls-9" d="M189.72,372.28c-1,.32-2,.56-3,.93-.7.27-.94.07-1.17-.61-.09-.27-.19-.55-.3-.82a13.2,13.2,0,0,1-4.29,1.74c0,.12.09.24.13.36l.12.34c.15.43.08.68-.43.82-1.82.53-3.64,1.09-5.44,1.69-.66.22-.57-.17-.59-.56,0-.56-.07-1.13-.12-1.69s-.1-1.22-.16-1.83c-4.24-2.29-6.13-7.73-5.12-13.55a12.25,12.25,0,0,0-1.47-1.27,10.7,10.7,0,0,0-5.86-2.11,18.81,18.81,0,0,1,2,5.22,7,7,0,0,1,.77.39l-.61.38a14.66,14.66,0,0,1,0,5.8,15.83,15.83,0,0,1,2.78-2l.3-.15c.52-.21.82,0,1.07.63a26.39,26.39,0,0,1,1.34,5.28c.15.9.25,1.8.33,2.71s.12,1.93.19,3.15c.4,1-.36,1.34-1.39,1.65q-6.11,1.82-12.18,3.76c-.72.22-.9.06-.68-.62a42.82,42.82,0,0,1,3-7.5,9.84,9.84,0,0,1-5.49.82c-.64,1.48-1.2,3-1.72,4.58a38,38,0,0,0-1,3.81,1.11,1.11,0,0,1-.87,1c-3.4,1-6.8,2.09-10.19,3.14-.46.14-1,.46-.79-.51a53,53,0,0,1,6.76-15.53,19.31,19.31,0,0,1-3.27-3.46,54,54,0,0,0-8.32,19.8,2.17,2.17,0,0,1-1.73,2c-4.58,1.33-9.1,2.83-13.66,4.23A3.47,3.47,0,0,0,116,397.5c-.13,1.31-.39,2.6-.56,3.9q-1.59,12.39-3.19,24.79c-1.07,8.3-2.18,16.59-3.25,24.89-1.28,9.91-2.51,19.82-3.86,29.72-.16,1.2.3,1.29,1.16,1.44,4.67.78,9.33,1.59,14,2.39l29.42,5.1L180.33,495c3.85.67,7.7,1.3,11.54,2V372.09A4.49,4.49,0,0,0,189.72,372.28Zm-19.18,31.09c-1.18,4.4-2.38,8.8-3.51,13.22-.22.84-.49.92-1.26.64a22,22,0,0,0-12.64-1c-3.43.8-5.44,3.1-5.56,6.1a5.41,5.41,0,0,0,2.07,4.34,46.91,46.91,0,0,0,6.36,4.47,33.43,33.43,0,0,1,8.35,7.1,18.73,18.73,0,0,1,4,10.8,24.8,24.8,0,0,1-1.86,11.86c-3.27,7.23-9,11-16.81,11.64l-1.82.12a29.38,29.38,0,0,1-18.54-6.29,2.1,2.1,0,0,1-.92-2.52c.91-3.4,1.68-6.85,2.44-10.29.17-.75.33-.81,1-.38a28.4,28.4,0,0,0,10.09,4.69,9.4,9.4,0,0,0,3,.26c4.24-.49,6.36-4,4.81-8.08a12,12,0,0,0-4.47-5.19c-1.94-1.46-3.94-2.83-5.82-4.35a17.15,17.15,0,0,1-6.54-13.15c-.31-8.16,2.32-15.17,8.52-20.65a28.32,28.32,0,0,1,14.49-6.48,32.66,32.66,0,0,1,12.88.19C171.2,401,171.19,401,170.54,403.37Z" transform="translate(-65.55 -114.11)"/><path class="cls-10" d="M191.87,497q0-59.79,0-119.59,0-2.65,0-5.3a1.75,1.75,0,0,1,1.55.67c2.58,2.51,5.22,5,7.71,7.56a4.09,4.09,0,0,0,3.19,1.29c2.66,0,5.33,0,8,.09,1.47,0,1.79.33,2,1.78q1.87,12.59,3.74,25.19c1.08,7.27,2.19,14.53,3.27,21.8.93,6.31,1.82,12.64,2.76,19,1.08,7.27,2.19,14.54,3.27,21.8.77,5.19,1.53,10.37,2.3,15.56.09.61,0,1-.74,1.15q-18.16,4.47-36.31,9A3.48,3.48,0,0,1,191.87,497Z" transform="translate(-65.55 -114.11)"/><path class="cls-11" d="M147.89,472.61a29.38,29.38,0,0,1-18.54-6.29,2.11,2.11,0,0,1-.92-2.53c.91-3.4,1.67-6.84,2.44-10.28.17-.75.33-.81,1-.38a28.33,28.33,0,0,0,10.1,4.68,9.26,9.26,0,0,0,3,.26c4.24-.49,6.36-4,4.82-8.08a12.09,12.09,0,0,0-4.47-5.2c-1.94-1.45-3.94-2.83-5.82-4.35a17.1,17.1,0,0,1-6.54-13.14c-.32-8.16,2.32-15.17,8.52-20.65a28.17,28.17,0,0,1,14.49-6.48,32.54,32.54,0,0,1,12.88.19c2.42.57,2.41.58,1.76,3-1.18,4.4-2.38,8.8-3.51,13.22-.22.85-.49.92-1.26.64a22.09,22.09,0,0,0-12.64-1.06c-3.43.8-5.44,3.1-5.56,6.11a5.44,5.44,0,0,0,2.07,4.34,46,46,0,0,0,6.36,4.47,33.58,33.58,0,0,1,8.34,7.1,18.78,18.78,0,0,1,4,10.8,24.77,24.77,0,0,1-1.87,11.86c-3.27,7.23-9,11-16.81,11.64Z" transform="translate(-65.55 -114.11)"/><path class="cls-12" d="M384.19,465.73a20.3,20.3,0,0,0,8.1,8,23.82,23.82,0,0,0,11.34,2.64,22.65,22.65,0,0,0,7.44-1.2,19,19,0,0,0,6.06-3.36,15.82,15.82,0,0,0,4.08-5.22,15.47,15.47,0,0,0,1.5-6.9,13.26,13.26,0,0,0-1.86-7.32,14.93,14.93,0,0,0-5-4.74,36.72,36.72,0,0,0-7-3.18q-3.9-1.32-8-2.64t-8-3a26.92,26.92,0,0,1-7-4.38,19.5,19.5,0,0,1-5-6.78,24.24,24.24,0,0,1-1.86-10.08,21.86,21.86,0,0,1,2.22-10,21.43,21.43,0,0,1,6-7.32,26.74,26.74,0,0,1,8.7-4.44,35.22,35.22,0,0,1,10.32-1.5,33.41,33.41,0,0,1,12.9,2.46A24.51,24.51,0,0,1,429.31,405l-6.84,4.92a20.11,20.11,0,0,0-7-6.3,20.37,20.37,0,0,0-9.54-2.1,25.93,25.93,0,0,0-7.32,1,18.28,18.28,0,0,0-6.06,3,14.75,14.75,0,0,0-4.14,5,15.14,15.14,0,0,0-1.56,7.08q0,6.36,3.24,9.78a22.85,22.85,0,0,0,8.1,5.4,85.77,85.77,0,0,0,10.56,3.48,51.28,51.28,0,0,1,10.56,4,22.78,22.78,0,0,1,8.1,7q3.24,4.5,3.24,12.42a23,23,0,0,1-2.16,10.2,22.45,22.45,0,0,1-5.82,7.5,25.18,25.18,0,0,1-8.46,4.62,32.06,32.06,0,0,1-10,1.56,40,40,0,0,1-15.48-2.94,28.32,28.32,0,0,1-12.12-9.9Z" transform="translate(-65.55 -114.11)"/><path class="cls-12" d="M457.63,396.5h7.92v37.44h47.52V396.5H521v85h-7.92V441.13H465.55v40.32h-7.92Z" transform="translate(-65.55 -114.11)"/><path class="cls-12" d="M547.75,439A48,48,0,0,1,551,421.09a42.54,42.54,0,0,1,9-14.1,40.85,40.85,0,0,1,13.86-9.3,48.93,48.93,0,0,1,35.64,0,40.85,40.85,0,0,1,13.86,9.3,42.57,42.57,0,0,1,9,14.1,51.12,51.12,0,0,1,0,35.82,42.43,42.43,0,0,1-9,14.16,40.13,40.13,0,0,1-13.86,9.24,49.77,49.77,0,0,1-35.64,0A40.13,40.13,0,0,1,560,471.08a42.4,42.4,0,0,1-9-14.16A48.49,48.49,0,0,1,547.75,439Zm7.92,0a42.37,42.37,0,0,0,2.52,14.76,35.06,35.06,0,0,0,7.2,11.88,33.3,33.3,0,0,0,11.34,7.92,40.19,40.19,0,0,0,29.88,0,33.3,33.3,0,0,0,11.34-7.92,35,35,0,0,0,7.2-11.88,44.48,44.48,0,0,0,0-29.52,35,35,0,0,0-7.2-11.88,33.29,33.29,0,0,0-11.34-7.92,40.19,40.19,0,0,0-29.88,0,33.29,33.29,0,0,0-11.34,7.92,35.06,35.06,0,0,0-7.2,11.88A42.37,42.37,0,0,0,555.67,439Z" transform="translate(-65.55 -114.11)"/><path class="cls-12" d="M662.35,396.5h24.48a45.39,45.39,0,0,1,9.3,1,27,27,0,0,1,8.88,3.54,19.9,19.9,0,0,1,6.6,6.9,21.36,21.36,0,0,1,2.58,11,22.05,22.05,0,0,1-2.1,10,19.5,19.5,0,0,1-5.64,6.9,24.33,24.33,0,0,1-8.16,4,34.93,34.93,0,0,1-9.66,1.32H670.27v40.32h-7.92Zm7.92,37.44h18a28.08,28.08,0,0,0,6.6-.78,17,17,0,0,0,5.76-2.52,13.06,13.06,0,0,0,4.08-4.62,14.71,14.71,0,0,0,1.56-7.08,14,14,0,0,0-1.62-7,14.59,14.59,0,0,0-4.2-4.74,17.2,17.2,0,0,0-5.94-2.7,27.69,27.69,0,0,0-6.72-.84H670.27Z" transform="translate(-65.55 -114.11)"/><path class="cls-12" d="M740.23,396.5h24.48a45.39,45.39,0,0,1,9.3,1,27,27,0,0,1,8.88,3.54,19.9,19.9,0,0,1,6.6,6.9,21.36,21.36,0,0,1,2.58,11,22.05,22.05,0,0,1-2.1,10,19.5,19.5,0,0,1-5.64,6.9,24.33,24.33,0,0,1-8.16,4,34.93,34.93,0,0,1-9.66,1.32H748.15v40.32h-7.92Zm7.92,37.44h18a28.08,28.08,0,0,0,6.6-.78,17,17,0,0,0,5.76-2.52,13.06,13.06,0,0,0,4.08-4.62,14.71,14.71,0,0,0,1.56-7.08,14,14,0,0,0-1.62-7,14.59,14.59,0,0,0-4.2-4.74,17.2,17.2,0,0,0-5.94-2.7,27.69,27.69,0,0,0-6.72-.84H748.15Z" transform="translate(-65.55 -114.11)"/><path class="cls-12" d="M818.11,396.5H826v85h-7.92Z" transform="translate(-65.55 -114.11)"/><path class="cls-12" d="M858.31,396.5h52v7.2h-44v30.24h41.28v7.2H866.23v33.12h46v7.2H858.31Z" transform="translate(-65.55 -114.11)"/><path class="cls-12" d="M940.74,465.73a20.3,20.3,0,0,0,8.1,8,23.83,23.83,0,0,0,11.34,2.64,22.65,22.65,0,0,0,7.44-1.2,19,19,0,0,0,6.06-3.36,15.84,15.84,0,0,0,4.08-5.22,15.48,15.48,0,0,0,1.5-6.9,13.26,13.26,0,0,0-1.86-7.32,14.93,14.93,0,0,0-5-4.74,36.72,36.72,0,0,0-7-3.18q-3.9-1.32-8-2.64t-8-3a26.89,26.89,0,0,1-7-4.38,19.49,19.49,0,0,1-5-6.78,24.24,24.24,0,0,1-1.86-10.08,21.85,21.85,0,0,1,2.22-10,21.42,21.42,0,0,1,6-7.32,26.72,26.72,0,0,1,8.7-4.44,35.23,35.23,0,0,1,10.32-1.5,33.41,33.41,0,0,1,12.9,2.46A24.51,24.51,0,0,1,985.86,405L979,409.93a20.11,20.11,0,0,0-7-6.3,20.37,20.37,0,0,0-9.54-2.1,25.93,25.93,0,0,0-7.32,1,18.29,18.29,0,0,0-6.06,3,14.77,14.77,0,0,0-4.14,5,15.14,15.14,0,0,0-1.56,7.08q0,6.36,3.24,9.78a22.85,22.85,0,0,0,8.1,5.4,85.7,85.7,0,0,0,10.56,3.48,51.26,51.26,0,0,1,10.56,4,22.78,22.78,0,0,1,8.1,7q3.24,4.5,3.24,12.42a23,23,0,0,1-2.16,10.2,22.45,22.45,0,0,1-5.82,7.5,25.17,25.17,0,0,1-8.46,4.62,32.06,32.06,0,0,1-10,1.56,40,40,0,0,1-15.48-2.94,28.3,28.3,0,0,1-12.12-9.9Z" transform="translate(-65.55 -114.11)"/><path class="cls-12" d="M379.42,347.76H370.7V345.6h19.8v2.16h-8.71v23.33h-2.38Z" transform="translate(-65.55 -114.11)"/><path class="cls-12" d="M394.43,345.6h2.38v11.23h14.26V345.6h2.38v25.49h-2.38V359H396.8v12.1h-2.38Z" transform="translate(-65.55 -114.11)"/><path class="cls-12" d="M420.42,345.6H436v2.16H422.79v9.07h12.38V359H422.79v9.94h13.79v2.16H420.42Z" transform="translate(-65.55 -114.11)"/></svg>