<svg viewBox="0 0 195.48 573.41" xmlns="http://www.w3.org/2000/svg" xmlns:xlink="http://www.w3.org/1999/xlink"><linearGradient id="a" gradientUnits="userSpaceOnUse" x1="329.92" x2="431.45" y1="254.39" y2="272.29"><stop offset="0" stop-color="#f9c561"/><stop offset=".78" stop-color="#f1bf50"/><stop offset="1" stop-color="#c9a400"/></linearGradient><linearGradient id="b" x1="348.43" x2="401.76" xlink:href="#a" y1="422.33" y2="426.99"/><linearGradient id="c" x1="353.66" x2="394.53" xlink:href="#a" y1="515.31" y2="518.16"/><linearGradient id="d" x1="343.15" x2="397.31" xlink:href="#a" y1="588.28" y2="588.28"/><linearGradient id="e" x1="52.16" x2="141.16" xlink:href="#a" y1="506.65" y2="506.65"/><linearGradient id="f" x1="366.01" x2="424.11" xlink:href="#a" y1="302.61" y2="312.85"/><ellipse cx="97.74" cy="516.36" fill="#fff" rx="97.74" ry="28.04"/><ellipse cx="97.74" cy="543.71" fill="#fff" rx="97.74" ry="29.69"/><path d="m0 515.01h195.48v29.65h-195.48z" fill="#fff"/><ellipse cx="97.56" cy="73.52" fill="#f3db89" rx="28.07" ry="18.11"/><path d="m389.07 182c0 26.13-13.59 47.3-30.35 47.3s-30.35-21.17-30.35-47.3 13.92-25.87 30.68-25.87 30.02-.22 30.02 25.87z" fill="#f9c561" transform="translate(-260.84 -95.59)"/><path d="m335 267.28 61.43 35.88c5.58 3.26 13 1.7 16.55-3.46l17-25a10.66 10.66 0 0 0 -3.74-15.32l-61.43-35.88c-5.58-3.26-13-1.7-16.55 3.46l-17 25a10.66 10.66 0 0 0 3.74 15.32z" fill="url(#a)" transform="translate(-260.84 -95.59)"/><path d="m380 267.28-61.43 35.88c-5.58 3.26-13 1.7-16.55-3.46l-17-25a10.66 10.66 0 0 1 3.74-15.32l61.43-35.88c5.58-3.26 13-1.7 16.55 3.46l17 25a10.66 10.66 0 0 1 -3.74 15.32z" fill="#f9c561" transform="translate(-260.84 -95.59)"/><rect fill="#f9c561" height="46.56" rx="12" width="38.34" x="77.12" y="114.53"/><path d="m348.53 354.1-38.71 4.5c-5.21.61-10.11-2.24-10.89-6.33l-15.58-82.37c-.77-4.09 2.86-7.93 8.08-8.53l38.71-4.5c5.21-.61 10.11 2.24 10.89 6.33l15.58 82.37c.77 4.08-2.86 7.92-8.08 8.53z" fill="#f9c561" transform="translate(-260.84 -95.59)"/><rect fill="#f9c561" height="144.86" rx="12" width="79.87" x="56.35" y="172.18"/><g transform="translate(-260.84 -95.59)"><path d="m362.55 421.24c2.76 33.51-6.82 61.33-21.4 62.13s-28.63-25.72-31.39-59.23 6.82-61.33 21.4-62.13 28.63 25.72 31.39 59.23z" fill="#f9c561"/><path d="m348.36 423.19c-2.84 34.58 6.82 63.28 21.59 64.09s29-26.57 31.88-61.16-6.83-63.27-21.59-64.12-29.04 26.61-31.88 61.19z" fill="url(#b)"/><path d="m361.29 515.29c3.05 37.74-3.62 69-14.89 69.78s-22.89-29.16-25.94-66.9 3.62-69 14.89-69.78 22.89 29.16 25.94 66.9z" fill="#f9c561"/><path d="m353.68 515.29c-3.05 37.74 3.62 69 14.89 69.78s22.89-29.16 25.94-66.9-3.62-69-14.89-69.78-22.89 29.16-25.94 66.9z" fill="url(#c)"/><path d="m369.34 590-25.55 19.8a11.65 11.65 0 0 1 -15.6-1.34l-6.49-7.29a9.91 9.91 0 0 1 1.43-14.57l25.54-19.84a11.65 11.65 0 0 1 15.6 1.34l6.49 7.29a9.91 9.91 0 0 1 -1.42 14.61z" fill="#f9c561"/><path d="m347.13 590 25.54 19.84a11.65 11.65 0 0 0 15.6-1.34l6.49-7.29a9.91 9.91 0 0 0 -1.43-14.57l-25.54-19.84a11.65 11.65 0 0 0 -15.6 1.34l-6.49 7.29a9.91 9.91 0 0 0 1.43 14.57z" fill="url(#d)"/></g><rect fill="#f9c561" height="190.68" rx="12" width="32.75" x="82.71" y="306.69"/><ellipse cx="96.66" cy="506.65" fill="url(#e)" rx="44.5" ry="14.76"/><path d="m366.51 354.1 38.71 4.5c5.21.61 10.11-2.24 10.89-6.33l15.58-82.37c.77-4.09-2.86-7.93-8.08-8.53l-38.71-4.5c-5.21-.61-10.11 2.24-10.89 6.33l-15.58 82.37c-.77 4.08 2.87 7.92 8.08 8.53z" fill="url(#f)" transform="translate(-260.84 -95.59)"/><path d="m387.16 236.87c-3.85-.65-7.7-1.29-11.55-2l-30.61-5.25-29.42-5.1q-7-1.21-14-2.39c-.85-.14-1.32-.24-1.15-1.43 1.35-9.9 2.58-19.82 3.86-29.73 1.07-8.3 2.18-16.59 3.25-24.89s2.12-16.53 3.19-24.79c.17-1.3.43-2.59.56-3.9a3.48 3.48 0 0 1 2.76-3.21c4.56-1.4 9.09-2.9 13.67-4.23a2.17 2.17 0 0 0 1.72-2 52.31 52.31 0 0 1 12.43-25c3.13-3.43 6.82-6.08 11.49-7 4.47-.93 8.46-.1 11.66 3.37a1.16 1.16 0 0 0 1 .39c5.21-.19 9 2.32 11.82 6.45a24.81 24.81 0 0 1 3.07 6.33c.23.68.47.88 1.17.61 1-.37 2-.61 3-.92a4.44 4.44 0 0 1 2.14-.19q0 2.65 0 5.3-.06 59.78-.06 119.58zm-44-24.37 1.82-.12c7.86-.62 13.55-4.41 16.81-11.64a24.77 24.77 0 0 0 1.87-11.86 18.78 18.78 0 0 0 -4-10.8 33.58 33.58 0 0 0 -8.34-7.1 46 46 0 0 1 -6.36-4.47 5.44 5.44 0 0 1 -2.07-4.34c.12-3 2.13-5.3 5.56-6.11a22.09 22.09 0 0 1 12.64 1.06c.77.27 1 .2 1.26-.64 1.13-4.42 2.33-8.82 3.51-13.22.65-2.42.66-2.42-1.76-3a32.54 32.54 0 0 0 -12.88-.19 28.17 28.17 0 0 0 -14.49 6.48c-6.2 5.48-8.84 12.49-8.52 20.65a17.1 17.1 0 0 0 6.54 13.14c1.88 1.52 3.88 2.9 5.82 4.35a12.09 12.09 0 0 1 4.47 5.2c1.54 4-.58 7.58-4.82 8.08a9.26 9.26 0 0 1 -3-.26 28.33 28.33 0 0 1 -10.1-4.68c-.63-.43-.79-.37-1 .38-.77 3.44-1.53 6.88-2.44 10.28a2.11 2.11 0 0 0 .92 2.53 29.38 29.38 0 0 0 18.58 6.28zm17-111.28a7.29 7.29 0 0 0 -4.58-1 14.6 14.6 0 0 0 -8.51 4.18c-6.65 6.22-10.46 14.07-12.81 22.72-.26 1 .33.65.79.51 3.4-1.05 6.79-2.12 10.2-3.14a1.1 1.1 0 0 0 .86-1 38.09 38.09 0 0 1 1-3.81c2.42-7.41 5.89-14.11 13.03-18.46zm5.36 15.8c-.07-1.22-.1-2.19-.19-3.15a30.15 30.15 0 0 0 -1.68-8c-.3-.81-.66-.88-1.36-.48a15.2 15.2 0 0 0 -3.23 2.42c-3.93 3.92-6.18 8.78-7.8 14-.21.69 0 .85.68.62 4.05-1.28 8.11-2.55 12.18-3.76 1.01-.31 1.77-.67 1.37-1.67zm2.57-12.54c.22.7.4 1.28.58 1.87a43.06 43.06 0 0 1 1.42 9.71c0 .39-.07.78.59.56q2.7-.89 5.44-1.69c.51-.15.58-.39.43-.83a17 17 0 0 0 -4.9-7.92 7.13 7.13 0 0 0 -3.58-1.7z" fill="#f9c561" transform="translate(-260.84 -95.59)"/><path d="m387.16 236.87q0-59.79 0-119.59 0-2.65 0-5.3a1.75 1.75 0 0 1 1.55.67c2.58 2.51 5.22 5 7.71 7.56a4.09 4.09 0 0 0 3.19 1.29c2.66 0 5.33 0 8 .09 1.47 0 1.79.33 2 1.78q1.87 12.59 3.74 25.19c1.08 7.27 2.19 14.53 3.27 21.8.93 6.31 1.82 12.64 2.76 19 1.08 7.27 2.19 14.54 3.27 21.8.77 5.19 1.53 10.37 2.3 15.56.09.61 0 1-.74 1.15q-18.16 4.47-36.31 9a3.48 3.48 0 0 1 -.74 0z" fill="#c9a400" transform="translate(-260.84 -95.59)"/><path d="m343.18 212.5a29.38 29.38 0 0 1 -18.54-6.29 2.11 2.11 0 0 1 -.92-2.53c.91-3.4 1.67-6.84 2.44-10.28.17-.75.33-.81 1-.38a28.33 28.33 0 0 0 10.1 4.68 9.26 9.26 0 0 0 3 .26c4.24-.49 6.36-4 4.82-8.08a12.09 12.09 0 0 0 -4.47-5.2c-1.94-1.45-3.94-2.83-5.82-4.35a17.1 17.1 0 0 1 -6.54-13.14c-.32-8.16 2.32-15.17 8.52-20.65a28.17 28.17 0 0 1 14.49-6.48 32.54 32.54 0 0 1 12.88.19c2.42.57 2.41.58 1.76 3-1.18 4.4-2.38 8.8-3.51 13.22-.22.85-.49.92-1.26.64a22.09 22.09 0 0 0 -12.64-1.06c-3.43.8-5.44 3.1-5.56 6.11a5.44 5.44 0 0 0 2.07 4.34 46 46 0 0 0 6.36 4.47 33.58 33.58 0 0 1 8.34 7.1 18.78 18.78 0 0 1 4 10.8 24.77 24.77 0 0 1 -1.87 11.86c-3.27 7.23-9 11-16.81 11.64z" fill="#fefefd" transform="translate(-260.84 -95.59)"/></svg>