<svg id="Layer_1" data-name="Layer 1" xmlns="http://www.w3.org/2000/svg" xmlns:xlink="http://www.w3.org/1999/xlink" viewBox="0 0 195.48 573.41"><defs><style>.cls-1{fill:#fff;}.cls-2{fill:#f3db89;}.cls-3{fill:#f9c561;}.cls-4{fill:url(#linear-gradient);}.cls-5{fill:url(#linear-gradient-2);}.cls-6{fill:url(#linear-gradient-3);}.cls-7{fill:url(#linear-gradient-4);}.cls-8{fill:url(#linear-gradient-5);}.cls-9{fill:url(#linear-gradient-6);}.cls-10{fill:#c9a400;}.cls-11{fill:#fefefd;}</style><linearGradient id="linear-gradient" x1="329.92" y1="254.39" x2="431.45" y2="272.29" gradientUnits="userSpaceOnUse"><stop offset="0" stop-color="#f9c561"/><stop offset="0.78" stop-color="#f1bf50"/><stop offset="1" stop-color="#c9a400"/></linearGradient><linearGradient id="linear-gradient-2" x1="348.43" y1="422.33" x2="401.76" y2="426.99" xlink:href="#linear-gradient"/><linearGradient id="linear-gradient-3" x1="353.66" y1="515.31" x2="394.53" y2="518.16" xlink:href="#linear-gradient"/><linearGradient id="linear-gradient-4" x1="343.15" y1="588.28" x2="397.31" y2="588.28" xlink:href="#linear-gradient"/><linearGradient id="linear-gradient-5" x1="52.16" y1="506.65" x2="141.16" y2="506.65" xlink:href="#linear-gradient"/><linearGradient id="linear-gradient-6" x1="366.01" y1="302.61" x2="424.11" y2="312.85" xlink:href="#linear-gradient"/></defs><title>award_logo</title><ellipse class="cls-1" cx="97.74" cy="516.36" rx="97.74" ry="28.04"/><ellipse class="cls-1" cx="97.74" cy="543.71" rx="97.74" ry="29.69"/><rect class="cls-1" y="515.01" width="195.48" height="29.65"/><ellipse class="cls-2" cx="97.56" cy="73.52" rx="28.07" ry="18.11"/><path class="cls-3" d="M389.07,182c0,26.13-13.59,47.3-30.35,47.3s-30.35-21.17-30.35-47.3,13.92-25.87,30.68-25.87S389.07,155.91,389.07,182Z" transform="translate(-260.84 -95.59)"/><path class="cls-4" d="M335,267.28l61.43,35.88c5.58,3.26,13,1.7,16.55-3.46l17-25a10.66,10.66,0,0,0-3.74-15.32l-61.43-35.88c-5.58-3.26-13-1.7-16.55,3.46l-17,25A10.66,10.66,0,0,0,335,267.28Z" transform="translate(-260.84 -95.59)"/><path class="cls-3" d="M380,267.28l-61.43,35.88c-5.58,3.26-13,1.7-16.55-3.46l-17-25a10.66,10.66,0,0,1,3.74-15.32l61.43-35.88c5.58-3.26,13-1.7,16.55,3.46l17,25A10.66,10.66,0,0,1,380,267.28Z" transform="translate(-260.84 -95.59)"/><rect class="cls-3" x="77.12" y="114.53" width="38.34" height="46.56" rx="12" ry="12"/><path class="cls-3" d="M348.53,354.1l-38.71,4.5c-5.21.61-10.11-2.24-10.89-6.33l-15.58-82.37c-.77-4.09,2.86-7.93,8.08-8.53l38.71-4.5c5.21-.61,10.11,2.24,10.89,6.33l15.58,82.37C357.38,349.65,353.75,353.49,348.53,354.1Z" transform="translate(-260.84 -95.59)"/><rect class="cls-3" x="56.35" y="172.18" width="79.87" height="144.86" rx="12" ry="12"/><path class="cls-3" d="M362.55,421.24c2.76,33.51-6.82,61.33-21.4,62.13s-28.63-25.72-31.39-59.23,6.82-61.33,21.4-62.13S359.79,387.73,362.55,421.24Z" transform="translate(-260.84 -95.59)"/><path class="cls-5" d="M348.36,423.19c-2.84,34.58,6.82,63.28,21.59,64.09s29-26.57,31.88-61.16S395,362.85,380.24,362,351.2,388.61,348.36,423.19Z" transform="translate(-260.84 -95.59)"/><path class="cls-3" d="M361.29,515.29c3.05,37.74-3.62,69-14.89,69.78s-22.89-29.16-25.94-66.9,3.62-69,14.89-69.78S358.24,477.55,361.29,515.29Z" transform="translate(-260.84 -95.59)"/><path class="cls-6" d="M353.68,515.29c-3.05,37.74,3.62,69,14.89,69.78s22.89-29.16,25.94-66.9-3.62-69-14.89-69.78S356.73,477.55,353.68,515.29Z" transform="translate(-260.84 -95.59)"/><path class="cls-3" d="M369.34,590,343.79,609.8a11.65,11.65,0,0,1-15.6-1.34l-6.49-7.29a9.91,9.91,0,0,1,1.43-14.57l25.54-19.84a11.65,11.65,0,0,1,15.6,1.34l6.49,7.29A9.91,9.91,0,0,1,369.34,590Z" transform="translate(-260.84 -95.59)"/><path class="cls-7" d="M347.13,590l25.54,19.84a11.65,11.65,0,0,0,15.6-1.34l6.49-7.29a9.91,9.91,0,0,0-1.43-14.57l-25.54-19.84a11.65,11.65,0,0,0-15.6,1.34l-6.49,7.29A9.91,9.91,0,0,0,347.13,590Z" transform="translate(-260.84 -95.59)"/><rect class="cls-3" x="82.71" y="306.69" width="32.75" height="190.68" rx="12" ry="12"/><ellipse class="cls-8" cx="96.66" cy="506.65" rx="44.5" ry="14.76"/><path class="cls-9" d="M366.51,354.1l38.71,4.5c5.21.61,10.11-2.24,10.89-6.33l15.58-82.37c.77-4.09-2.86-7.93-8.08-8.53l-38.71-4.5c-5.21-.61-10.11,2.24-10.89,6.33l-15.58,82.37C357.66,349.65,361.3,353.49,366.51,354.1Z" transform="translate(-260.84 -95.59)"/><path class="cls-3" d="M387.16,236.87c-3.85-.65-7.7-1.29-11.55-2L345,229.62l-29.42-5.1q-7-1.21-14-2.39c-.85-.14-1.32-.24-1.15-1.43,1.35-9.9,2.58-19.82,3.86-29.73,1.07-8.3,2.18-16.59,3.25-24.89s2.12-16.53,3.19-24.79c.17-1.3.43-2.59.56-3.9a3.48,3.48,0,0,1,2.76-3.21c4.56-1.4,9.09-2.9,13.67-4.23a2.17,2.17,0,0,0,1.72-2,52.31,52.31,0,0,1,12.43-25c3.13-3.43,6.82-6.08,11.49-7,4.47-.93,8.46-.1,11.66,3.37a1.16,1.16,0,0,0,1,.39c5.21-.19,9,2.32,11.82,6.45a24.81,24.81,0,0,1,3.07,6.33c.23.68.47.88,1.17.61,1-.37,2-.61,3-.92a4.44,4.44,0,0,1,2.14-.19q0,2.65,0,5.3Q387.16,177.07,387.16,236.87Zm-44-24.37,1.82-.12c7.86-.62,13.55-4.41,16.81-11.64a24.77,24.77,0,0,0,1.87-11.86,18.78,18.78,0,0,0-4-10.8,33.58,33.58,0,0,0-8.34-7.1,46,46,0,0,1-6.36-4.47,5.44,5.44,0,0,1-2.07-4.34c.12-3,2.13-5.3,5.56-6.11a22.09,22.09,0,0,1,12.64,1.06c.77.27,1,.2,1.26-.64,1.13-4.42,2.33-8.82,3.51-13.22.65-2.42.66-2.42-1.76-3a32.54,32.54,0,0,0-12.88-.19,28.17,28.17,0,0,0-14.49,6.48c-6.2,5.48-8.84,12.49-8.52,20.65a17.1,17.1,0,0,0,6.54,13.14c1.88,1.52,3.88,2.9,5.82,4.35a12.09,12.09,0,0,1,4.47,5.2c1.54,4-.58,7.58-4.82,8.08a9.26,9.26,0,0,1-3-.26,28.33,28.33,0,0,1-10.1-4.68c-.63-.43-.79-.37-1,.38-.77,3.44-1.53,6.88-2.44,10.28a2.11,2.11,0,0,0,.92,2.53A29.38,29.38,0,0,0,343.18,212.5Zm17-111.28a7.29,7.29,0,0,0-4.58-1,14.6,14.6,0,0,0-8.51,4.18c-6.65,6.22-10.46,14.07-12.81,22.72-.26,1,.33.65.79.51,3.4-1.05,6.79-2.12,10.2-3.14a1.1,1.1,0,0,0,.86-1,38.09,38.09,0,0,1,1-3.81C349.53,112.27,353,105.57,360.14,101.22Zm5.36,15.8c-.07-1.22-.1-2.19-.19-3.15a30.15,30.15,0,0,0-1.68-8c-.3-.81-.66-.88-1.36-.48a15.2,15.2,0,0,0-3.23,2.42c-3.93,3.92-6.18,8.78-7.8,14-.21.69,0,.85.68.62,4.05-1.28,8.11-2.55,12.18-3.76C365.13,118.36,365.89,118,365.49,117Zm2.57-12.54c.22.7.4,1.28.58,1.87a43.06,43.06,0,0,1,1.42,9.71c0,.39-.07.78.59.56q2.7-.89,5.44-1.69c.51-.15.58-.39.43-.83a17,17,0,0,0-4.9-7.92A7.13,7.13,0,0,0,368.07,104.48Z" transform="translate(-260.84 -95.59)"/><path class="cls-10" d="M387.16,236.87q0-59.79,0-119.59,0-2.65,0-5.3a1.75,1.75,0,0,1,1.55.67c2.58,2.51,5.22,5,7.71,7.56a4.09,4.09,0,0,0,3.19,1.29c2.66,0,5.33,0,8,.09,1.47,0,1.79.33,2,1.78q1.87,12.59,3.74,25.19c1.08,7.27,2.19,14.53,3.27,21.8.93,6.31,1.82,12.64,2.76,19,1.08,7.27,2.19,14.54,3.27,21.8.77,5.19,1.53,10.37,2.3,15.56.09.61,0,1-.74,1.15q-18.16,4.47-36.31,9A3.48,3.48,0,0,1,387.16,236.87Z" transform="translate(-260.84 -95.59)"/><path class="cls-11" d="M343.18,212.5a29.38,29.38,0,0,1-18.54-6.29,2.11,2.11,0,0,1-.92-2.53c.91-3.4,1.67-6.84,2.44-10.28.17-.75.33-.81,1-.38a28.33,28.33,0,0,0,10.1,4.68,9.26,9.26,0,0,0,3,.26c4.24-.49,6.36-4,4.82-8.08a12.09,12.09,0,0,0-4.47-5.2c-1.94-1.45-3.94-2.83-5.82-4.35a17.1,17.1,0,0,1-6.54-13.14c-.32-8.16,2.32-15.17,8.52-20.65a28.17,28.17,0,0,1,14.49-6.48,32.54,32.54,0,0,1,12.88.19c2.42.57,2.41.58,1.76,3-1.18,4.4-2.38,8.8-3.51,13.22-.22.85-.49.92-1.26.64a22.09,22.09,0,0,0-12.64-1.06c-3.43.8-5.44,3.1-5.56,6.11a5.44,5.44,0,0,0,2.07,4.34,46,46,0,0,0,6.36,4.47,33.58,33.58,0,0,1,8.34,7.1,18.78,18.78,0,0,1,4,10.8,24.77,24.77,0,0,1-1.87,11.86c-3.27,7.23-9,11-16.81,11.64Z" transform="translate(-260.84 -95.59)"/></svg>