<svg id="Layer_1" data-name="Layer 1" xmlns="http://www.w3.org/2000/svg" xmlns:xlink="http://www.w3.org/1999/xlink" viewBox="0 0 971.64 643.66"><defs><style>.cls-1{fill:url(#linear-gradient);}.cls-2{fill:#fff;}.cls-3{fill:url(#linear-gradient-2);}.cls-4{fill:url(#New_Gradient_Swatch_2);}.cls-5{fill:url(#New_Gradient_Swatch_2-2);}.cls-6{fill:url(#New_Gradient_Swatch_2-3);}.cls-7{fill:url(#New_Gradient_Swatch_2-4);}.cls-8{fill:url(#New_Gradient_Swatch_2-6);}.cls-9{fill:url(#New_Gradient_Swatch_2-7);}.cls-10{fill:url(#New_Gradient_Swatch_2-11);}.cls-11{fill:#eebc65;}.cls-12{fill:#c9a400;}.cls-13{fill:#fefefd;}</style><linearGradient id="linear-gradient" x1="82.18" y1="542.91" x2="242.32" y2="635.37" gradientUnits="userSpaceOnUse"><stop offset="0" stop-color="#fff"/><stop offset="0.72" stop-color="#f4f6f5"/><stop offset="1" stop-color="#bfbfbf"/></linearGradient><linearGradient id="linear-gradient-2" x1="23.43" y1="480.46" x2="172.06" y2="566.27" xlink:href="#linear-gradient"/><linearGradient id="New_Gradient_Swatch_2" x1="160.54" y1="528.66" x2="163.83" y2="528.66" gradientUnits="userSpaceOnUse"><stop offset="0" stop-color="#f9c561"/><stop offset="0.56" stop-color="#e8b85a"/><stop offset="1" stop-color="#94753a"/></linearGradient><linearGradient id="New_Gradient_Swatch_2-2" x1="160.33" y1="528.53" x2="163.61" y2="528.76" xlink:href="#New_Gradient_Swatch_2"/><linearGradient id="New_Gradient_Swatch_2-3" x1="148.22" y1="547.45" x2="150.55" y2="547.45" xlink:href="#New_Gradient_Swatch_2"/><linearGradient id="New_Gradient_Swatch_2-4" x1="160.54" y1="528.66" x2="163.75" y2="528.66" xlink:href="#New_Gradient_Swatch_2"/><linearGradient id="New_Gradient_Swatch_2-6" x1="160.75" y1="528.72" x2="163.83" y2="528.72" xlink:href="#New_Gradient_Swatch_2"/><linearGradient id="New_Gradient_Swatch_2-7" x1="170.27" y1="551.65" x2="178.33" y2="551.65" xlink:href="#New_Gradient_Swatch_2"/><linearGradient id="New_Gradient_Swatch_2-11" x1="67.05" y1="326.69" x2="248.91" y2="365.35" xlink:href="#New_Gradient_Swatch_2"/></defs><title>award_logo</title><path class="cls-1" d="M261,571.71v28.7c0,.32,0,.63-.05,1-1.65,16-44.74,28.75-97.67,28.75s-96-12.79-97.67-28.75c0-.32-.05-.63-.05-1v-28.7Z" transform="translate(-65.55 -49.7)"/><path class="cls-2" d="M74.55,692.41c0,.32,0,.63.05,1h-.05Z" transform="translate(-65.55 -49.7)"/><ellipse class="cls-3" cx="97.74" cy="523.36" rx="97.74" ry="28.04"/><path class="cls-4" d="M163.83,525.6c0,.12-.06.24-.08.36-.47,2.1-1,4.07-1.55,5.88-.52-1.67-1-3.47-1.45-5.39l-.21-1a11.49,11.49,0,0,1,2.41.27C163.24,525.69,163.54,525.64,163.83,525.6Z" transform="translate(-65.55 -49.7)"/><path class="cls-5" d="M163.83,525.6c0,.12-.06.24-.08.36-.47,2.1-1,4.07-1.55,5.88-.52-1.67-1-3.47-1.45-5.39l-.21-1a11.49,11.49,0,0,1,2.41.27C163.24,525.69,163.54,525.64,163.83,525.6Z" transform="translate(-65.55 -49.7)"/><path class="cls-6" d="M148.9,545.95a11.9,11.9,0,0,0,1.65,3.16l-.6.06a10,10,0,0,1-1.73-3.44A6,6,0,0,0,148.9,545.95Z" transform="translate(-65.55 -49.7)"/><path class="cls-7" d="M163.75,526c-.47,2.1-1,4.07-1.55,5.88-.52-1.67-1-3.47-1.45-5.39l-.21-1a11.49,11.49,0,0,1,2.41.27A7.2,7.2,0,0,1,163.75,526Z" transform="translate(-65.55 -49.7)"/><path class="cls-6" d="M148.9,545.95a11.9,11.9,0,0,0,1.65,3.16l-.6.06a10,10,0,0,1-1.73-3.44A6,6,0,0,0,148.9,545.95Z" transform="translate(-65.55 -49.7)"/><path class="cls-8" d="M163,525.76c.29-.07.59-.12.88-.16,0,.12-.06.24-.08.36-.47,2.1-1,4.07-1.55,5.88-.52-1.67-1-3.47-1.45-5.39A10.8,10.8,0,0,1,163,525.76Z" transform="translate(-65.55 -49.7)"/><path class="cls-9" d="M178.33,549.6a12,12,0,0,1-8.06,4.4l3.78-2.93a10.72,10.72,0,0,0,1.79-1.77Q177.1,549.43,178.33,549.6Z" transform="translate(-65.55 -49.7)"/><path class="cls-4" d="M163,525.76c.29-.07.59-.12.88-.16,0,.12-.06.24-.08.36-.47,2.1-1,4.07-1.55,5.88-.52-1.67-1-3.47-1.45-5.39l-.21-1A11.49,11.49,0,0,1,163,525.76Z" transform="translate(-65.55 -49.7)"/><path class="cls-9" d="M178.33,549.6a12,12,0,0,1-8.06,4.4l3.78-2.93a10.72,10.72,0,0,0,1.79-1.77Q177.1,549.43,178.33,549.6Z" transform="translate(-65.55 -49.7)"/><path class="cls-9" d="M178.33,549.6a12,12,0,0,1-8.06,4.4l3.78-2.93a10.72,10.72,0,0,0,1.79-1.77Q177.1,549.43,178.33,549.6Z" transform="translate(-65.55 -49.7)"/><path class="cls-10" d="M235.88,233.73l-15.06,79.65c-.77,4.08-5.67,6.93-10.89,6.33l-8.16-1v22.13c4.31,11.72,6.26,28.22,4.77,46.34-1.29,15.76-5,30-10,40.8,3.14,12.8,4.28,31.1,2.65,51.25-2,24.91-7.75,46.42-14.67,58L198,547.71a10,10,0,0,1,3.92,9c3,2,4.75,4.25,4.75,6.64,0,8.15-19.92,14.76-44.5,14.76s-44.5-6.61-44.5-14.76c0-2.74,2.25-5.3,6.16-7.49a10.09,10.09,0,0,1,4-8.15L140.33,538c-7.14-11.31-13.1-33.25-15.16-58.74-1.53-18.92-.62-36.21,2.09-48.84-6.45-10.82-11.29-27-12.79-45.18-1.71-20.87,1.35-39.53,7.43-50.83V318.85l-7.37.86c-5.21.6-10.11-2.25-10.89-6.33l-15-79.62a10.73,10.73,0,0,1,4.84-13.25l49.23-28.74v-8.53a11.73,11.73,0,0,1,.85-4.4c-6.39-8.67-10.43-21.44-10.43-35.69,0-11.68,2.78-18.08,7.35-21.6,5.1-4.51,13.36-7.44,22.67-7.44a37.24,37.24,0,0,1,19.66,5.18h0c6.74,2.71,11,9,11,23.85,0,16-5.08,30.1-12.87,38.67a11,11,0,0,1,.09,1.42v8.06l50,29.21A10.73,10.73,0,0,1,235.88,233.73Z" transform="translate(-65.55 -49.7)"/><path class="cls-11" d="M192.87,191c-3.85-.65-7.7-1.29-11.55-2l-30.65-5.29-29.42-5.1q-7-1.21-14-2.39c-.85-.14-1.32-.24-1.15-1.43,1.35-9.9,2.58-19.82,3.86-29.73,1.07-8.3,2.18-16.59,3.25-24.89s2.12-16.53,3.19-24.79c.17-1.3.43-2.59.56-3.9a3.48,3.48,0,0,1,2.76-3.21c4.56-1.4,9.09-2.9,13.67-4.23a2.17,2.17,0,0,0,1.72-2,52.31,52.31,0,0,1,12.43-25c3.13-3.43,6.82-6.08,11.49-7,4.47-.93,8.46-.1,11.66,3.37a1.16,1.16,0,0,0,1,.39c5.21-.19,9,2.32,11.82,6.45a24.81,24.81,0,0,1,3.07,6.33c.23.68.47.88,1.17.61,1-.37,2-.61,3-.92a4.44,4.44,0,0,1,2.14-.19q0,2.65,0,5.3Q192.87,131.18,192.87,191Zm-44-24.37,1.82-.12c7.86-.62,13.55-4.41,16.81-11.64A24.77,24.77,0,0,0,169.38,143a18.78,18.78,0,0,0-4-10.8,33.58,33.58,0,0,0-8.34-7.1,46,46,0,0,1-6.36-4.47,5.44,5.44,0,0,1-2.07-4.34c.12-3,2.13-5.3,5.56-6.11a22.09,22.09,0,0,1,12.64,1.06c.77.27,1,.2,1.26-.64,1.13-4.42,2.33-8.82,3.51-13.22.65-2.42.66-2.42-1.76-3a32.54,32.54,0,0,0-12.88-.19,28.17,28.17,0,0,0-14.49,6.48c-6.2,5.48-8.84,12.49-8.52,20.65a17.1,17.1,0,0,0,6.54,13.14c1.88,1.52,3.88,2.9,5.82,4.35a12.09,12.09,0,0,1,4.47,5.2c1.54,4-.58,7.58-4.82,8.08a9.26,9.26,0,0,1-3-.26,28.33,28.33,0,0,1-10.1-4.68c-.63-.43-.79-.37-1,.38-.77,3.44-1.53,6.88-2.44,10.28a2.11,2.11,0,0,0,.92,2.53A29.38,29.38,0,0,0,148.89,166.61Zm17-111.28a7.29,7.29,0,0,0-4.58-1,14.6,14.6,0,0,0-8.51,4.18c-6.65,6.22-10.46,14.07-12.81,22.72-.26,1,.33.65.79.51,3.4-1.05,6.79-2.12,10.2-3.14a1.1,1.1,0,0,0,.86-1,38.09,38.09,0,0,1,1-3.81C155.24,66.38,158.76,59.68,165.85,55.33Zm5.36,15.8c-.07-1.22-.1-2.19-.19-3.15a30.15,30.15,0,0,0-1.68-8c-.3-.81-.66-.88-1.36-.48a15.2,15.2,0,0,0-3.23,2.42c-3.93,3.92-6.18,8.78-7.8,14-.21.69,0,.85.68.62,4.05-1.28,8.11-2.55,12.18-3.76C170.84,72.47,171.6,72.14,171.2,71.13Zm2.57-12.54c.22.7.4,1.28.58,1.87a43.06,43.06,0,0,1,1.42,9.71c0,.39-.07.78.59.56q2.7-.89,5.44-1.69c.51-.15.58-.39.43-.83a17,17,0,0,0-4.9-7.92A7.13,7.13,0,0,0,173.78,58.59Z" transform="translate(-65.55 -49.7)"/><path class="cls-12" d="M192.87,191q0-59.79,0-119.59,0-2.65,0-5.3a1.75,1.75,0,0,1,1.55.67c2.58,2.51,5.22,5,7.71,7.56a4.09,4.09,0,0,0,3.19,1.29c2.66,0,5.33,0,8,.09,1.47,0,1.79.33,2,1.78q1.87,12.59,3.74,25.19c1.08,7.27,2.19,14.53,3.27,21.8.93,6.31,1.82,12.64,2.76,19,1.08,7.27,2.19,14.54,3.27,21.8.77,5.19,1.53,10.37,2.3,15.56.09.61,0,1-.74,1.15q-18.16,4.47-36.31,9A3.48,3.48,0,0,1,192.87,191Z" transform="translate(-65.55 -49.7)"/><path class="cls-13" d="M148.89,166.61a29.38,29.38,0,0,1-18.54-6.29,2.11,2.11,0,0,1-.92-2.53c.91-3.4,1.67-6.84,2.44-10.28.17-.75.33-.81,1-.38a28.33,28.33,0,0,0,10.1,4.68,9.26,9.26,0,0,0,3,.26c4.24-.49,6.36-4,4.82-8.08a12.09,12.09,0,0,0-4.47-5.2c-1.94-1.45-3.94-2.83-5.82-4.35a17.1,17.1,0,0,1-6.54-13.14c-.32-8.16,2.32-15.17,8.52-20.65a28.17,28.17,0,0,1,14.49-6.48,32.54,32.54,0,0,1,12.88.19c2.42.57,2.41.58,1.76,3-1.18,4.4-2.38,8.8-3.51,13.22-.22.85-.49.92-1.26.64a22.09,22.09,0,0,0-12.64-1.06c-3.43.8-5.44,3.1-5.56,6.11a5.44,5.44,0,0,0,2.07,4.34,46,46,0,0,0,6.36,4.47,33.58,33.58,0,0,1,8.34,7.1,18.78,18.78,0,0,1,4,10.8,24.77,24.77,0,0,1-1.87,11.86c-3.27,7.23-9,11-16.81,11.64Z" transform="translate(-65.55 -49.7)"/><path class="cls-11" d="M434.19,365.73a20.3,20.3,0,0,0,8.1,8,23.82,23.82,0,0,0,11.34,2.64,22.65,22.65,0,0,0,7.44-1.2,19,19,0,0,0,6.06-3.36,15.82,15.82,0,0,0,4.08-5.22,15.47,15.47,0,0,0,1.5-6.9,13.26,13.26,0,0,0-1.86-7.32,14.93,14.93,0,0,0-5-4.74,36.72,36.72,0,0,0-7-3.18q-3.9-1.32-8-2.64t-8-3a26.92,26.92,0,0,1-7-4.38,19.5,19.5,0,0,1-5-6.78,24.24,24.24,0,0,1-1.86-10.08,21.86,21.86,0,0,1,2.22-10,21.42,21.42,0,0,1,6-7.32,26.75,26.75,0,0,1,8.7-4.44,35.22,35.22,0,0,1,10.32-1.5,33.41,33.41,0,0,1,12.9,2.46A24.51,24.51,0,0,1,479.31,305l-6.84,4.92a20.1,20.1,0,0,0-7-6.3,20.37,20.37,0,0,0-9.54-2.1,25.93,25.93,0,0,0-7.32,1,18.28,18.28,0,0,0-6.06,3,14.74,14.74,0,0,0-4.14,5,15.14,15.14,0,0,0-1.56,7.08q0,6.36,3.24,9.78a22.84,22.84,0,0,0,8.1,5.4,85.77,85.77,0,0,0,10.56,3.48,51.25,51.25,0,0,1,10.56,4,22.79,22.79,0,0,1,8.1,7q3.24,4.5,3.24,12.42a23,23,0,0,1-2.16,10.2,22.45,22.45,0,0,1-5.82,7.5,25.18,25.18,0,0,1-8.46,4.62,32.06,32.06,0,0,1-10,1.56,40,40,0,0,1-15.48-2.94,28.32,28.32,0,0,1-12.12-9.9Z" transform="translate(-65.55 -49.7)"/><path class="cls-11" d="M507.63,296.49h7.92v37.44h47.52V296.49H571v85h-7.92V341.13H515.55v40.32h-7.92Z" transform="translate(-65.55 -49.7)"/><path class="cls-11" d="M597.75,339A48,48,0,0,1,601,321.09a42.54,42.54,0,0,1,9-14.1,40.85,40.85,0,0,1,13.86-9.3,48.93,48.93,0,0,1,35.64,0,40.85,40.85,0,0,1,13.86,9.3,42.57,42.57,0,0,1,9,14.1,51.12,51.12,0,0,1,0,35.82,42.43,42.43,0,0,1-9,14.16,40.13,40.13,0,0,1-13.86,9.24,49.77,49.77,0,0,1-35.64,0A40.13,40.13,0,0,1,610,371.08a42.4,42.4,0,0,1-9-14.16A48.49,48.49,0,0,1,597.75,339Zm7.92,0a42.37,42.37,0,0,0,2.52,14.76,35.06,35.06,0,0,0,7.2,11.88,33.3,33.3,0,0,0,11.34,7.92,40.19,40.19,0,0,0,29.88,0,33.3,33.3,0,0,0,11.34-7.92,35,35,0,0,0,7.2-11.88,44.48,44.48,0,0,0,0-29.52,35,35,0,0,0-7.2-11.88,33.3,33.3,0,0,0-11.34-7.92,40.19,40.19,0,0,0-29.88,0,33.3,33.3,0,0,0-11.34,7.92,35.06,35.06,0,0,0-7.2,11.88A42.38,42.38,0,0,0,605.67,339Z" transform="translate(-65.55 -49.7)"/><path class="cls-11" d="M712.35,296.49h24.48a45.39,45.39,0,0,1,9.3,1,27,27,0,0,1,8.88,3.54,19.9,19.9,0,0,1,6.6,6.9,21.36,21.36,0,0,1,2.58,11,22.05,22.05,0,0,1-2.1,10,19.5,19.5,0,0,1-5.64,6.9,24.33,24.33,0,0,1-8.16,4,35,35,0,0,1-9.66,1.32H720.27v40.32h-7.92Zm7.92,37.44h18a28.06,28.06,0,0,0,6.6-.78,17,17,0,0,0,5.76-2.52,13.07,13.07,0,0,0,4.08-4.62,14.71,14.71,0,0,0,1.56-7.08,14,14,0,0,0-1.62-7,14.58,14.58,0,0,0-4.2-4.74,17.21,17.21,0,0,0-5.94-2.7,27.69,27.69,0,0,0-6.72-.84H720.27Z" transform="translate(-65.55 -49.7)"/><path class="cls-11" d="M790.23,296.49h24.48a45.39,45.39,0,0,1,9.3,1,27,27,0,0,1,8.88,3.54,19.9,19.9,0,0,1,6.6,6.9,21.36,21.36,0,0,1,2.58,11,22.05,22.05,0,0,1-2.1,10,19.5,19.5,0,0,1-5.64,6.9,24.33,24.33,0,0,1-8.16,4,35,35,0,0,1-9.66,1.32H798.15v40.32h-7.92Zm7.92,37.44h18a28.06,28.06,0,0,0,6.6-.78,17,17,0,0,0,5.76-2.52,13.07,13.07,0,0,0,4.08-4.62,14.71,14.71,0,0,0,1.56-7.08,14,14,0,0,0-1.62-7,14.58,14.58,0,0,0-4.2-4.74,17.21,17.21,0,0,0-5.94-2.7,27.69,27.69,0,0,0-6.72-.84H798.15Z" transform="translate(-65.55 -49.7)"/><path class="cls-11" d="M868.11,296.49H876v85h-7.92Z" transform="translate(-65.55 -49.7)"/><path class="cls-11" d="M908.31,296.49h52v7.2h-44v30.24h41.28v7.2H916.23v33.12h46v7.2H908.31Z" transform="translate(-65.55 -49.7)"/><path class="cls-11" d="M990.74,365.73a20.3,20.3,0,0,0,8.1,8,23.83,23.83,0,0,0,11.34,2.64,22.65,22.65,0,0,0,7.44-1.2,19,19,0,0,0,6.06-3.36,15.84,15.84,0,0,0,4.08-5.22,15.48,15.48,0,0,0,1.5-6.9,13.26,13.26,0,0,0-1.86-7.32,14.93,14.93,0,0,0-5-4.74,36.72,36.72,0,0,0-7-3.18q-3.9-1.32-8-2.64t-8-3a26.89,26.89,0,0,1-7-4.38,19.49,19.49,0,0,1-5-6.78,24.24,24.24,0,0,1-1.86-10.08,21.85,21.85,0,0,1,2.22-10,21.41,21.41,0,0,1,6-7.32,26.73,26.73,0,0,1,8.7-4.44,35.23,35.23,0,0,1,10.32-1.5,33.41,33.41,0,0,1,12.9,2.46,24.52,24.52,0,0,1,10.26,8.22l-6.84,4.92a20.1,20.1,0,0,0-7-6.3,20.37,20.37,0,0,0-9.54-2.1,25.93,25.93,0,0,0-7.32,1,18.29,18.29,0,0,0-6.06,3,14.76,14.76,0,0,0-4.14,5,15.14,15.14,0,0,0-1.56,7.08q0,6.36,3.24,9.78a22.84,22.84,0,0,0,8.1,5.4,85.7,85.7,0,0,0,10.56,3.48,51.23,51.23,0,0,1,10.56,4,22.79,22.79,0,0,1,8.1,7q3.24,4.5,3.24,12.42a23,23,0,0,1-2.16,10.2,22.45,22.45,0,0,1-5.82,7.5,25.17,25.17,0,0,1-8.46,4.62,32.06,32.06,0,0,1-10,1.56,40,40,0,0,1-15.48-2.94,28.3,28.3,0,0,1-12.12-9.9Z" transform="translate(-65.55 -49.7)"/><path class="cls-11" d="M429.42,247.76H420.7V245.6h19.8v2.16h-8.71v23.33h-2.38Z" transform="translate(-65.55 -49.7)"/><path class="cls-11" d="M444.43,245.6h2.38v11.23h14.26V245.6h2.38v25.49h-2.38V259H446.8v12.1h-2.38Z" transform="translate(-65.55 -49.7)"/><path class="cls-11" d="M470.42,245.6H486v2.16H472.79v9.07h12.38V259H472.79v9.94h13.79v2.16H470.42Z" transform="translate(-65.55 -49.7)"/></svg>