<svg id="Layer_1" data-name="Layer 1" xmlns="http://www.w3.org/2000/svg" xmlns:xlink="http://www.w3.org/1999/xlink" viewBox="0 0 845.08 516"><defs><style>.cls-1{fill:url(#linear-gradient);}.cls-2{fill:url(#linear-gradient-2);}.cls-3{fill:url(#linear-gradient-3);}.cls-4{fill:url(#linear-gradient-5);}.cls-5{fill:url(#linear-gradient-6);}.cls-6{fill:url(#linear-gradient-8);}.cls-7{fill:url(#linear-gradient-9);}.cls-8{fill:url(#linear-gradient-16);}.cls-9{fill:#eebc65;}</style><linearGradient id="linear-gradient" x1="82.18" y1="542.91" x2="242.32" y2="635.37" gradientUnits="userSpaceOnUse"><stop offset="0" stop-color="#fff"/><stop offset="0.72" stop-color="#f4f6f5"/><stop offset="1" stop-color="#bfbfbf"/></linearGradient><linearGradient id="linear-gradient-2" x1="23.43" y1="416.05" x2="172.06" y2="501.86" xlink:href="#linear-gradient"/><linearGradient id="linear-gradient-3" x1="159.99" y1="528.08" x2="163.16" y2="528.75" gradientUnits="userSpaceOnUse"><stop offset="0" stop-color="#ffc963"/><stop offset="0.36" stop-color="#e1b258"/><stop offset="1" stop-color="#94753a"/></linearGradient><linearGradient id="linear-gradient-5" x1="147.91" y1="547.2" x2="150.82" y2="547.82" xlink:href="#linear-gradient-3"/><linearGradient id="linear-gradient-6" x1="159.96" y1="528.24" x2="163.12" y2="528.92" xlink:href="#linear-gradient-3"/><linearGradient id="linear-gradient-8" x1="160.39" y1="528.16" x2="163.16" y2="528.75" xlink:href="#linear-gradient-3"/><linearGradient id="linear-gradient-9" x1="170.89" y1="551.08" x2="177.71" y2="552.52" xlink:href="#linear-gradient-3"/><linearGradient id="linear-gradient-16" x1="73.61" y1="328.09" x2="248.91" y2="365.35" xlink:href="#linear-gradient-3"/></defs><title>award_logo</title><path class="cls-1" d="M261,571.71v28.7c0,.32,0,.63-.05,1-1.65,16-44.74,28.75-97.67,28.75s-96-12.79-97.67-28.75c0-.32-.05-.63-.05-1v-28.7Z" transform="translate(-65.55 -114.11)"/><ellipse class="cls-2" cx="97.74" cy="458.95" rx="97.74" ry="28.04"/><path class="cls-3" d="M163.83,525.6c0,.12-.06.24-.08.36-.47,2.1-1,4.07-1.55,5.88-.52-1.67-1-3.47-1.45-5.39l-.21-1a11.48,11.48,0,0,1,2.41.27C163.24,525.69,163.54,525.64,163.83,525.6Z" transform="translate(-65.55 -114.11)"/><path class="cls-3" d="M163.83,525.6c0,.12-.06.24-.08.36-.47,2.1-1,4.07-1.55,5.88-.52-1.67-1-3.47-1.45-5.39l-.21-1a11.48,11.48,0,0,1,2.41.27C163.24,525.69,163.54,525.64,163.83,525.6Z" transform="translate(-65.55 -114.11)"/><path class="cls-4" d="M150.55,549.11l-.6.06a10.05,10.05,0,0,1-1.73-3.44,6,6,0,0,0,.68.22A11.89,11.89,0,0,0,150.55,549.11Z" transform="translate(-65.55 -114.11)"/><path class="cls-5" d="M163.75,526c-.47,2.1-1,4.07-1.55,5.88-.52-1.67-1-3.47-1.45-5.39l-.21-1a11.48,11.48,0,0,1,2.41.27A7.2,7.2,0,0,1,163.75,526Z" transform="translate(-65.55 -114.11)"/><path class="cls-4" d="M150.55,549.11l-.6.06a10.05,10.05,0,0,1-1.73-3.44,6,6,0,0,0,.68.22A11.89,11.89,0,0,0,150.55,549.11Z" transform="translate(-65.55 -114.11)"/><path class="cls-6" d="M163.83,525.6c0,.12-.06.24-.08.36-.47,2.1-1,4.07-1.55,5.88-.52-1.67-1-3.47-1.45-5.39a10.79,10.79,0,0,1,2.2-.69C163.24,525.69,163.54,525.64,163.83,525.6Z" transform="translate(-65.55 -114.11)"/><path class="cls-7" d="M178.33,549.6a12,12,0,0,1-8.06,4.4l3.78-2.93a10.72,10.72,0,0,0,1.79-1.77Q177.1,549.44,178.33,549.6Z" transform="translate(-65.55 -114.11)"/><path class="cls-3" d="M163.83,525.6c0,.12-.06.24-.08.36-.47,2.1-1,4.07-1.55,5.88-.52-1.67-1-3.47-1.45-5.39l-.21-1a11.48,11.48,0,0,1,2.41.27C163.24,525.69,163.54,525.64,163.83,525.6Z" transform="translate(-65.55 -114.11)"/><path class="cls-7" d="M178.33,549.6a12,12,0,0,1-8.06,4.4l3.78-2.93a10.72,10.72,0,0,0,1.79-1.77Q177.1,549.44,178.33,549.6Z" transform="translate(-65.55 -114.11)"/><path class="cls-7" d="M178.33,549.6a12,12,0,0,1-8.06,4.4l3.78-2.93a10.72,10.72,0,0,0,1.79-1.77Q177.1,549.44,178.33,549.6Z" transform="translate(-65.55 -114.11)"/><path class="cls-4" d="M148.9,546a11.89,11.89,0,0,0,1.65,3.16l-.6.06a10.05,10.05,0,0,1-1.73-3.44A6,6,0,0,0,148.9,546Z" transform="translate(-65.55 -114.11)"/><path class="cls-3" d="M163,525.76c.29-.07.59-.12.88-.16,0,.12-.06.24-.08.36-.47,2.1-1,4.07-1.55,5.88-.52-1.67-1-3.47-1.45-5.39l-.21-1A11.48,11.48,0,0,1,163,525.76Z" transform="translate(-65.55 -114.11)"/><path class="cls-7" d="M178.33,549.6a12,12,0,0,1-8.06,4.4l3.78-2.93a10.72,10.72,0,0,0,1.79-1.77Q177.1,549.44,178.33,549.6Z" transform="translate(-65.55 -114.11)"/><path class="cls-8" d="M228.19,282.2c-1.12,20.12-5.86,37.16-11.65,44.23l-12.08,23.78a125.22,125.22,0,0,1,2.08,37c-1.29,15.76-5,30-10,40.8,3.14,12.8,4.28,31.1,2.65,51.25-2,24.91-7.75,46.42-14.67,58L198,547.71a10,10,0,0,1,3.92,9c3,2,4.75,4.25,4.75,6.64,0,8.15-19.92,14.76-44.5,14.76s-44.5-6.61-44.5-14.76c0-2.74,2.25-5.3,6.16-7.49a10.09,10.09,0,0,1,4-8.15L140.33,538c-7.14-11.31-13.1-33.25-15.16-58.74-1.53-18.92-.62-36.21,2.09-48.84-6.45-10.82-11.29-27-12.79-45.18-1.19-14.57-.06-28.07,2.8-38.73l-11.21-19.41c-6.5-5.69-12-24-13.25-45.92a130.61,130.61,0,0,1,1.61-30.71c-2.14-4.34-1.06-20.2,1.58-25.49,4-8,4-8,12.56-13.1l34.1-20.13v-8.53a11.73,11.73,0,0,1,.85-4.4c-6.39-8.67-10.43-21.44-10.43-35.69,0-11.68,2.78-18.08,7.35-21.6,5.1-4.51,13.36-7.44,22.67-7.44a37.24,37.24,0,0,1,19.66,5.18h0c6.74,2.71,11,9,11,23.85,0,16-5.08,30.1-12.87,38.67a11,11,0,0,1,.09,1.42v8.06l11,6.7s9,6,9,6c5,2,11.84,6.88,12,7,5.28,3.76,11,5,13,12,1.62,5.69,2.72,24.15.58,28.49A130.08,130.08,0,0,1,228.19,282.2Z" transform="translate(-65.55 -114.11)"/><path class="cls-9" d="M408,483.5h8.16l35.76,85H443l-9.24-22.56h-45l-9.6,22.56h-8.28Zm3.72,8.64-19.8,46.56h39Z" transform="translate(-65.55 -114.11)"/><path class="cls-9" d="M461.47,483.5h8.16l21.12,75.24H491l21.48-75.24h10.08L544,558.74h.24l21.12-75.24h8.16l-24.72,85h-9.72l-21.48-75.6h-.24l-21.48,75.6h-9.72Z" transform="translate(-65.55 -114.11)"/><path class="cls-9" d="M618.67,483.5h8.16l35.76,85h-8.88l-9.24-22.56h-45l-9.6,22.56h-8.28Zm3.72,8.64-19.8,46.56h39Z" transform="translate(-65.55 -114.11)"/><path class="cls-9" d="M683.83,483.5h22.32q1.68,0,4.56.12a46.84,46.84,0,0,1,6.24.72,38.43,38.43,0,0,1,6.84,1.92,19.39,19.39,0,0,1,6.24,3.84,20,20,0,0,1,4.56,6.36,22,22,0,0,1,1.8,9.36,21.41,21.41,0,0,1-2.1,10.08,19.55,19.55,0,0,1-5.28,6.42,22.19,22.19,0,0,1-7,3.66,45.32,45.32,0,0,1-7.32,1.68l24.72,40.8h-9l-23.88-40.32H691.75v40.32h-7.92Zm7.92,37.44h16.8a27.7,27.7,0,0,0,10.14-1.56,16.8,16.8,0,0,0,6.06-3.84,12.16,12.16,0,0,0,2.94-4.92,15.16,15.16,0,0,0,0-9.6,12.18,12.18,0,0,0-2.94-4.92,16.85,16.85,0,0,0-6.06-3.84,27.72,27.72,0,0,0-10.14-1.56h-16.8Z" transform="translate(-65.55 -114.11)"/><path class="cls-9" d="M762.91,483.5h26.28a56.78,56.78,0,0,1,18.72,2.7,41.68,41.68,0,0,1,12.78,6.9,34.31,34.31,0,0,1,8,9.3,45.44,45.44,0,0,1,6.06,18.24q.36,3.78.36,5.34t-.36,5.34a45.44,45.44,0,0,1-6.06,18.24,34.25,34.25,0,0,1-8,9.3,41.64,41.64,0,0,1-12.78,6.9,56.81,56.81,0,0,1-18.72,2.7H762.91Zm7.92,77.76h16.32a56.77,56.77,0,0,0,15.72-2.1,36,36,0,0,0,12.72-6.42,30.25,30.25,0,0,0,8.52-11,41.46,41.46,0,0,0,0-31.56,30.25,30.25,0,0,0-8.52-11,36,36,0,0,0-12.72-6.42,56.84,56.84,0,0,0-15.72-2.1H770.83Z" transform="translate(-65.55 -114.11)"/><path class="cls-9" d="M864.19,552.73a20.3,20.3,0,0,0,8.1,8,23.83,23.83,0,0,0,11.34,2.64,22.65,22.65,0,0,0,7.44-1.2,19,19,0,0,0,6.06-3.36,15.84,15.84,0,0,0,4.08-5.22,15.48,15.48,0,0,0,1.5-6.9,13.26,13.26,0,0,0-1.86-7.32,14.93,14.93,0,0,0-5-4.74,36.72,36.72,0,0,0-7-3.18q-3.9-1.32-8-2.64t-8-3a26.89,26.89,0,0,1-7-4.38,19.49,19.49,0,0,1-5-6.78,24.24,24.24,0,0,1-1.86-10.08,21.85,21.85,0,0,1,2.22-10,21.42,21.42,0,0,1,6-7.32,26.72,26.72,0,0,1,8.7-4.44,35.23,35.23,0,0,1,10.32-1.5,33.41,33.41,0,0,1,12.9,2.46A24.51,24.51,0,0,1,909.31,492l-6.84,4.92a20.11,20.11,0,0,0-7-6.3,20.37,20.37,0,0,0-9.54-2.1,25.93,25.93,0,0,0-7.32,1,18.29,18.29,0,0,0-6.06,3,14.77,14.77,0,0,0-4.14,5,15.14,15.14,0,0,0-1.56,7.08q0,6.36,3.24,9.78a22.85,22.85,0,0,0,8.1,5.4,85.7,85.7,0,0,0,10.56,3.48,51.26,51.26,0,0,1,10.56,4,22.78,22.78,0,0,1,8.1,7q3.24,4.5,3.24,12.42a23,23,0,0,1-2.16,10.2,22.45,22.45,0,0,1-5.82,7.5,25.17,25.17,0,0,1-8.46,4.62,32.06,32.06,0,0,1-10,1.56,40,40,0,0,1-15.48-2.94,28.3,28.3,0,0,1-12.12-9.9Z" transform="translate(-65.55 -114.11)"/><path class="cls-9" d="M379.42,307.76H370.7V305.6h19.8v2.16h-8.71v23.33h-2.38Z" transform="translate(-65.55 -114.11)"/><path class="cls-9" d="M394.43,305.6h2.38v11.23h14.26V305.6h2.38v25.49h-2.38V319H396.8v12.1h-2.38Z" transform="translate(-65.55 -114.11)"/><path class="cls-9" d="M420.42,305.6H436v2.16H422.79v9.07h12.38V319H422.79v9.94h13.79v2.16H420.42Z" transform="translate(-65.55 -114.11)"/><path class="cls-9" d="M381.07,363.49H393l31,71.28,31-71.28h11.28v85h-7.92V373.57H458l-32.4,74.88h-3.48l-32.88-74.88H389v74.88h-7.92Z" transform="translate(-65.55 -114.11)"/><path class="cls-9" d="M492.07,406a48,48,0,0,1,3.24-17.88,42.57,42.57,0,0,1,9-14.1,40.84,40.84,0,0,1,13.86-9.3,48.93,48.93,0,0,1,35.64,0,40.85,40.85,0,0,1,13.86,9.3,42.57,42.57,0,0,1,9,14.1,51.12,51.12,0,0,1,0,35.82,42.42,42.42,0,0,1-9,14.16,40.13,40.13,0,0,1-13.86,9.24,49.77,49.77,0,0,1-35.64,0,40.13,40.13,0,0,1-13.86-9.24,42.42,42.42,0,0,1-9-14.16A48.49,48.49,0,0,1,492.07,406Zm7.92,0a42.35,42.35,0,0,0,2.52,14.76,35.06,35.06,0,0,0,7.2,11.88,33.3,33.3,0,0,0,11.34,7.92,40.19,40.19,0,0,0,29.88,0,33.3,33.3,0,0,0,11.34-7.92,35,35,0,0,0,7.2-11.88,44.48,44.48,0,0,0,0-29.52,35,35,0,0,0-7.2-11.88,33.3,33.3,0,0,0-11.34-7.92,40.19,40.19,0,0,0-29.88,0,33.29,33.29,0,0,0-11.34,7.92,35.06,35.06,0,0,0-7.2,11.88A42.35,42.35,0,0,0,500,406Z" transform="translate(-65.55 -114.11)"/><path class="cls-9" d="M594.67,363.49h8.52L630.55,438l27.6-74.52h8.4l-32.28,85h-7.92Z" transform="translate(-65.55 -114.11)"/><path class="cls-9" d="M686.83,363.49h7.92v85h-7.92Z" transform="translate(-65.55 -114.11)"/><path class="cls-9" d="M727,363.49h52v7.2h-44v30.24h41.28v7.2H734.95v33.12h46v7.2H727Z" transform="translate(-65.55 -114.11)"/></svg>