<svg viewBox="0 0 524 100.38" xmlns="http://www.w3.org/2000/svg" xmlns:xlink="http://www.w3.org/1999/xlink"><linearGradient id="a" gradientTransform="matrix(-1 0 0 1 1016 0)" gradientUnits="userSpaceOnUse" x1="383.7" x2="468.21" y1="232.08" y2="221.71"><stop offset=".5" stop-color="#f9c561"/><stop offset="1" stop-color="#ba9349"/></linearGradient><linearGradient id="b" x1="119.7" x2="204.21" xlink:href="#a" y1="236.08" y2="225.71"/><path d="m543.82 253 94.18 12c0-11.33-33.39-23.67-33.39-35 0-10 33.39-19 33.39-29l-94.18-12z" fill="url(#a)" transform="translate(-114 -168.62)"/><path d="m208.18 257-94.18 12c0-11.33 33.39-23.67 33.39-35 0-10-33.39-19-33.39-29l94.18-12z" fill="url(#b)" transform="translate(-114 -168.62)"/><path d="m454.65 16.38-24.83 4v64l23.97-3z" fill="#ac0007"/><path d="m95.04 88.38-24.83-4v-69l23.97 8z" fill="#ac0007"/><g transform="translate(-114 -168.62)"><path d="m567.79 250c0-24-384.44-23-384.44 3v-69c0-21 385.29-20 385.29 0s-.85 78-.85 66z" fill="#f9c561"/><path d="m242.57 195.43-9.57.71.5 6.5 9.2-.68.27 3.84-9.18.68 1 12.88-4.09.32-2.13-27.06c5.5-.43 8.25-.64 13.75-1z"/><path d="m246 194.24a2.43 2.43 0 0 1 .64-1.84 2.53 2.53 0 0 1 1.78-.88 2.57 2.57 0 0 1 1.91.63 2.43 2.43 0 0 1 .89 1.76 2.6 2.6 0 0 1 -2.42 2.75 2.55 2.55 0 0 1 -1.9-.63 2.49 2.49 0 0 1 -.9-1.79zm5.09 6.79 1.14 17.08-4 .27-1.13-17.08z"/><path d="m256.15 200.7 4-.25.1 1.58a6.57 6.57 0 0 1 4.59-2.34 6 6 0 0 1 4.81 1.6c1 1 1.61 2.72 1.75 5.13l.59 10.48-4 .23-.56-9.55a6.32 6.32 0 0 0 -.91-3.45 2.9 2.9 0 0 0 -2.57-.83 3.09 3.09 0 0 0 -2.74 1.47 8.86 8.86 0 0 0 -.54 4.52l.51 8.25-4 .25z"/><path d="m288.83 198.88 4-.18.76 17.1-4 .18-.08-1.79a7.65 7.65 0 0 1 -11.16.27 9.5 9.5 0 0 1 -2.66-6.41 9.18 9.18 0 0 1 2-6.53 7.51 7.51 0 0 1 5.69-2.86 7.37 7.37 0 0 1 5.53 2.2zm-9 9a5.94 5.94 0 0 0 1.53 3.93 4.34 4.34 0 0 0 3.5 1.39 4.56 4.56 0 0 0 3.49-1.68 6.47 6.47 0 0 0 -.38-7.94 4.51 4.51 0 0 0 -3.62-1.36 4.41 4.41 0 0 0 -3.36 1.72 5.64 5.64 0 0 0 -1.2 3.91z"/><path d="m301.38 185.76 1.18 29.67-4 .16-1.24-29.66z"/><path d="m319.45 214.83-.88-29q10.36 10 20.54 20.2l-.37-18.86 4.16-.08.51 28.79q-10.11-10.15-20.41-20.16l.54 19z"/><path d="m348.44 205.49a8.45 8.45 0 0 1 2.59-6.35 9.49 9.49 0 0 1 13.1-.11 9.13 9.13 0 0 1 .06 12.88 9.12 9.12 0 0 1 -6.55 2.64 8.81 8.81 0 0 1 -6.5-2.56 8.92 8.92 0 0 1 -2.7-6.5zm4.07 0a5.75 5.75 0 0 0 1.43 4 5.38 5.38 0 0 0 7.45-.06 6.4 6.4 0 0 0 -.06-8 5.33 5.33 0 0 0 -7.44.07 5.47 5.47 0 0 0 -1.38 4.01z"/><path d="m371 196.86h4v1.58a8.22 8.22 0 0 1 2-1.62 4.79 4.79 0 0 1 2.19-.44 5.3 5.3 0 0 1 4.63 2.54 6 6 0 0 1 5.11-2.5q5.85 0 5.78 7.06l-.11 10.58h-4l.08-9.51a7.26 7.26 0 0 0 -.58-3.49 2.19 2.19 0 0 0 -2-1.05 2.6 2.6 0 0 0 -2.41 1.22 7.86 7.86 0 0 0 -.77 4v8.84h-4v-9.46q0-4.57-2.65-4.58a2.67 2.67 0 0 0 -2.46 1.25 7.72 7.72 0 0 0 -.77 3.94v8.84h-4z"/><path d="m399.28 189.88a2.43 2.43 0 0 1 .79-1.78 2.53 2.53 0 0 1 1.85-.73 2.57 2.57 0 0 1 1.85.78 2.43 2.43 0 0 1 .74 1.82 2.6 2.6 0 0 1 -2.64 2.55 2.54 2.54 0 0 1 -1.84-.78 2.5 2.5 0 0 1 -.75-1.86zm4.51 7.18-.26 17.12-4-.05.27-17.13z"/><path d="m408.86 197.14 4 .08v1.58a6.56 6.56 0 0 1 4.77-2 6 6 0 0 1 4.66 2c.94 1.09 1.38 2.84 1.32 5.26l-.27 10.49-4-.1.22-9.56a6.32 6.32 0 0 0 -.63-3.51 2.9 2.9 0 0 0 -2.5-1 3.08 3.08 0 0 0 -2.85 1.24 8.87 8.87 0 0 0 -.9 4.47l-.16 8.26-4-.07z"/><path d="m441.56 198 4 .15-.64 17.11-4-.14.06-1.79a7.65 7.65 0 0 1 -11.14-.64 9.5 9.5 0 0 1 -2.13-6.6 9.18 9.18 0 0 1 2.5-6.35 7.51 7.51 0 0 1 5.9-2.39 7.37 7.37 0 0 1 5.33 2.64zm-9.74 8.19a5.94 5.94 0 0 0 1.2 4 4.34 4.34 0 0 0 3.37 1.67 4.55 4.55 0 0 0 3.61-1.39 6.47 6.47 0 0 0 .27-7.94 4.51 4.51 0 0 0 -3.49-1.65 4.4 4.4 0 0 0 -3.49 1.44 5.64 5.64 0 0 0 -1.47 3.88z"/><path d="m454.59 202.2-.59 13.42-4-.16.6-13.46-1.7-.07.14-3.69 1.7.07.25-6.27 4 .16-.26 6.27 3.11.13-.16 3.69z"/><path d="m460.28 191.63a2.43 2.43 0 0 1 .85-1.76 2.53 2.53 0 0 1 1.87-.67 2.57 2.57 0 0 1 1.82.84 2.43 2.43 0 0 1 .68 1.84 2.6 2.6 0 0 1 -2.72 2.46 2.55 2.55 0 0 1 -1.82-.84 2.49 2.49 0 0 1 -.68-1.87zm4.28 7.32-.81 17.1-4-.18.78-17.1z"/><path d="m468.39 207.59a8.45 8.45 0 0 1 3-6.17 9.5 9.5 0 0 1 13.08.73 9.12 9.12 0 0 1 -.77 12.86 9.13 9.13 0 0 1 -6.71 2.21 8.82 8.82 0 0 1 -6.32-3 8.92 8.92 0 0 1 -2.28-6.63zm4.06.28a5.75 5.75 0 0 0 1.16 4.13 5.38 5.38 0 0 0 7.44.42 6.39 6.39 0 0 0 .45-8 5.33 5.33 0 0 0 -7.44-.41 5.47 5.47 0 0 0 -1.61 3.85z"/><path d="m491.47 200.43 4 .25-.1 1.58a6.57 6.57 0 0 1 4.85-1.74 6 6 0 0 1 4.57 2.2c.89 1.13 1.26 2.9 1.09 5.31l-.73 10.47-4-.27.65-9.54a6.32 6.32 0 0 0 -.47-3.54 2.91 2.91 0 0 0 -2.45-1.15 3.09 3.09 0 0 0 -2.9 1.11 8.86 8.86 0 0 0 -1.1 4.42l-.53 8.24-4-.25z"/><path d="m521.2 205.43-3.43 1.48q-.66-1.64-1.81-1.72a1.34 1.34 0 0 0 -1 .29 1.2 1.2 0 0 0 -.46.89c0 .65.68 1.36 2.15 2.12a13.51 13.51 0 0 1 4.06 2.82 4.25 4.25 0 0 1 .85 3.15 5.37 5.37 0 0 1 -2.15 4 6.6 6.6 0 0 1 -10.2-3.39l3.5-1.31a7.37 7.37 0 0 0 1 1.64 2.47 2.47 0 0 0 1.68.8q2 .15 2.15-1.67.08-1.05-1.4-2.08l-1.16-.67-1.17-.67a7.52 7.52 0 0 1 -2.31-1.86 4.15 4.15 0 0 1 -.7-2.82 4.84 4.84 0 0 1 1.81-3.57 5.43 5.43 0 0 1 3.94-1.17 5.22 5.22 0 0 1 4.65 3.74z"/></g></svg>